<svg width="64" height="64" viewBox="0 0 64 64" fill="none" xmlns="http://www.w3.org/2000/svg">
<path d="M45.1681 44.472C50.6631 38.9771 47.4634 31.737 47.4634 31.737L40.9828 30.6799L43.1076 23.5332C43.1076 23.5332 37.3101 17.5687 34.0171 16.8567C30.7241 16.1446 16.1662 30.7025 16.8782 33.9955C17.5903 37.2885 23.3086 43.3321 23.3086 43.3321L30.094 41.5686L31.0401 48.1603C31.0401 48.1603 37.6035 49.0003 38.6069 48.6291" stroke="#2C537D" stroke-width="3" stroke-linecap="round" stroke-linejoin="round"/>
<path d="M47.5333 47.3907L28.2696 27.8979L25.8238 13.5486L10.9731 10.6014L13.6615 25.7108L28.2696 27.8979" fill="#CEE9FA"/>
<path d="M47.5333 47.3907L28.2696 27.8979L25.8238 13.5486L10.9731 10.6014L13.6615 25.7108L28.2696 27.8979" stroke="#2C537D" stroke-width="3" stroke-linecap="round" stroke-linejoin="round"/>
<path d="M50.8351 50.7833L53.2393 53.1875" stroke="#2C537D" stroke-width="3" stroke-linecap="round"/>
</svg>
