<svg width="162" height="105" viewBox="0 0 162 105" fill="none" xmlns="http://www.w3.org/2000/svg">
<path d="M93.0225 10.6809C93.0225 10.6809 109.488 -1.5021 125.95 0.154904C142.412 1.8119 159.042 23.0379 159.042 23.0379L153.713 27.0809C153.713 27.0809 126.093 4.16691 111.135 21.1069C96.1775 38.0469 93.0225 10.6809 93.0225 10.6809Z" fill="#90B4CE"/>
<path opacity="0.2" d="M93.0225 10.6809C93.0225 10.6809 109.488 -1.5021 125.95 0.154904C142.412 1.8119 159.042 23.0379 159.042 23.0379L153.713 27.0809C153.713 27.0809 126.093 4.16691 111.135 21.1069C96.1775 38.0469 93.0225 10.6809 93.0225 10.6809Z" fill="white"/>
<path d="M162 8.98047H105.46V45.5105H162V8.98047Z" fill="#FFD200"/>
<path opacity="0.4" d="M13.951 86.5594C14.9927 86.3491 15.9746 85.9096 16.8254 85.2727C17.6762 84.6359 18.3746 83.8177 18.87 82.8774V82.8244L44.103 34.7734L57.99 44.6024L48.17 75.4804C47.911 76.2923 47.8524 77.1547 47.999 77.9941C48.1456 78.8335 48.4932 79.625 49.0121 80.3009C49.5309 80.9768 50.2056 81.5172 50.9786 81.8758C51.7516 82.2345 52.5998 82.4007 53.451 82.3604C60.912 82.0194 68.851 81.8274 77.09 81.8274C119.679 81.8274 154.205 86.7884 154.205 92.9114C154.205 99.0344 119.679 104.001 77.09 104.001C34.501 104.001 0 99.0394 0 92.9274C0 90.5504 5.164 88.3604 13.951 86.5594Z" fill="#E6E6E6"/>
<path d="M94.1938 89.292C94.1938 89.292 93.4048 91.956 91.0658 92.271C88.7268 92.586 88.2358 94.935 90.3838 95.415C92.5318 95.895 97.8448 92.884 97.8448 92.884L97.5088 89.5L94.1938 89.292Z" fill="#90B4CE"/>
<path d="M139.741 88.8386C139.741 88.8386 142.448 89.4246 142.941 91.7326C143.434 94.0406 145.808 94.3496 146.141 92.1696C146.474 89.9896 143.041 84.9326 143.041 84.9326L139.694 85.5326L139.741 88.8386Z" fill="#90B4CE"/>
<path d="M139.378 49.0527C139.378 49.0527 141.872 60.6907 132.893 65.6787C123.914 70.6667 95.5928 61.6877 99.9648 89.9577H93.6438C93.6438 89.9577 85.4748 66.5107 106.668 58.1757L113.1 50.8757L139.378 49.0527Z" fill="#24285B"/>
<path d="M65.6292 54.9609L67.7793 52.9062L54.334 38.8366L52.1839 40.8913L65.6292 54.9609Z" fill="#FFD200"/>
<path opacity="0.08" d="M65.6292 54.9609L67.7793 52.9062L54.334 38.8366L52.1839 40.8913L65.6292 54.9609Z" fill="black"/>
<path d="M66.6761 53.959L68.8262 51.9043L55.3809 37.8346L53.2308 39.8893L66.6761 53.959Z" fill="#FFD200"/>
<path d="M56.1207 34.168C52.6641 30.5509 47.906 29.4879 45.4931 31.7937C43.0802 34.0995 43.9263 38.9009 47.3829 42.518C50.8395 46.1351 55.5976 47.1982 58.0105 44.8924C60.4234 42.5866 59.5773 37.7851 56.1207 34.168Z" fill="#FFD200"/>
<path opacity="0.08" d="M56.1207 34.168C52.6641 30.5509 47.906 29.4879 45.4931 31.7937C43.0802 34.0995 43.9263 38.9009 47.3829 42.518C50.8395 46.1351 55.5976 47.1982 58.0105 44.8924C60.4234 42.5866 59.5773 37.7851 56.1207 34.168Z" fill="black"/>
<path d="M57.1715 33.1739C53.7149 29.5568 48.9567 28.4937 46.5439 30.7995C44.131 33.1053 44.9771 37.9068 48.4337 41.5239C51.8903 45.141 56.6484 46.204 59.0613 43.8982C61.4741 41.5924 60.628 36.791 57.1715 33.1739Z" fill="#FFD200"/>
<path opacity="0.57" d="M55.6873 34.5859C53.404 32.1966 50.2612 31.4942 48.6677 33.017C47.0741 34.5398 47.6333 37.7112 49.9165 40.1005C52.1998 42.4898 55.3426 43.1923 56.9361 41.6694C58.5297 40.1466 57.9705 36.9752 55.6873 34.5859Z" fill="white"/>
<path d="M70.7423 11.9957C72.0817 13.9348 73.6748 15.6858 75.4793 17.2017C75.7057 17.3666 75.9623 17.4852 76.2345 17.5509C76.5068 17.6165 76.7893 17.6279 77.0659 17.5844C77.3426 17.5408 77.6079 17.4432 77.8468 17.2971C78.0857 17.1509 78.2935 16.9592 78.4583 16.7327C79.0335 16.0341 79.3948 15.1842 79.4988 14.2851C79.6027 13.3861 79.4449 12.4762 79.0443 11.6647L77.6693 8.00372C77.3134 7.30366 76.7493 6.73106 76.0547 6.36468C75.3601 5.99829 74.569 5.85612 73.7903 5.95772C70.8753 6.12872 69.1753 9.94372 70.7423 11.9957Z" fill="#F4A28C"/>
<path d="M76.8271 8.75586L87.6712 13.1259L86.3392 20.8419L78.5211 14.4629L76.8271 8.75586Z" fill="#F4A28C"/>
<path d="M71.6642 11.4627C72.7069 10.6683 73.6545 9.75624 74.4882 8.74471C74.5637 9.42973 74.8373 10.0779 75.2754 10.6098C75.7136 11.1418 76.2973 11.5344 76.9552 11.7397C77.5894 11.9485 78.2765 11.9304 78.8988 11.6883C79.5211 11.4462 80.0399 10.9952 80.3662 10.4127L76.8492 6.2517C76.3687 5.63643 75.7306 5.16279 75.0025 4.88108C74.2745 4.59936 73.4837 4.5201 72.7142 4.65171C72.0496 4.76623 71.3929 4.92288 70.7482 5.12071C69.1482 5.65371 68.0362 7.9027 66.2772 7.9767C66.1003 7.98527 65.9287 8.03963 65.779 8.13445C65.6294 8.22927 65.507 8.36131 65.4238 8.51764C65.3405 8.67397 65.2993 8.84925 65.3041 9.0263C65.3089 9.20336 65.3596 9.37612 65.4512 9.52771C66.3142 10.9607 68.2012 12.7837 70.5082 12.0537C70.9234 11.9215 71.3139 11.7218 71.6642 11.4627Z" fill="#24285B"/>
<path d="M76.5235 11.9324C76.5235 11.9324 75.5105 10.6534 76.5235 9.96636C77.5365 9.27936 79.0235 11.1224 77.8775 12.3534L76.5235 11.9324Z" fill="#F4A28C"/>
<path d="M72.3672 14.1172L72.4952 16.1262C72.5059 16.2386 72.5444 16.3466 72.6073 16.4405C72.6701 16.5344 72.7552 16.6112 72.855 16.6641C72.9549 16.7169 73.0663 16.7441 73.1792 16.7433C73.2922 16.7424 73.4032 16.7135 73.5022 16.6592L74.9462 15.8592L72.3672 14.1172Z" fill="#F4A28C"/>
<path opacity="0.31" d="M79.4012 15.1722C79.4012 15.1722 79.0762 12.7472 78.2012 11.8252C79.3628 12.2616 80.3678 13.0348 81.0874 14.0458C81.8069 15.0569 82.2083 16.2597 82.2402 17.5002L79.4012 15.1722Z" fill="#CE8172"/>
<path opacity="0.08" d="M150.99 44.5672C150.99 44.5672 151.161 19.4302 120.967 14.1172L138.707 45.5072H150.964L150.99 44.5672Z" fill="black"/>
<path d="M84.8989 23.5119L85.7989 18.3059C86.148 16.1822 87.0305 14.182 88.3636 12.4925C89.6966 10.8029 91.4368 9.47939 93.4209 8.64586C95.1482 7.9554 96.9542 7.48114 98.7979 7.23387C101.961 6.97122 105.146 7.30189 108.188 8.20887C115.989 10.3145 123.002 14.6626 128.357 20.7144C133.711 26.7663 137.173 34.256 138.313 42.2559L139.379 49.4769L113.099 51.3079C113.099 51.3079 114.431 43.8469 105.106 43.8469C95.7809 43.8469 83.9729 43.9459 84.8989 23.5119Z" fill="#90B4CE"/>
<path opacity="0.08" d="M110.65 15.4385C110.65 15.4385 123.402 17.6815 137.417 37.8785L139.378 49.4785L119.437 50.9595L110.65 15.4385Z" fill="black"/>
<path d="M96.0279 24.7266C93.5389 16.4266 103.19 9.70962 110.07 14.9856C115.825 19.3926 122.327 27.3276 122.582 40.7186C123.024 64.8856 99.8749 60.5636 68.5459 51.3076L69.5459 44.2676C69.5459 44.2676 107.062 51.3606 101.967 39.1676C99.8329 34.0686 97.3489 29.1446 96.0279 24.7266Z" fill="#90B4CE"/>
<path opacity="0.2" d="M96.0279 24.7266C93.5389 16.4266 103.19 9.70962 110.07 14.9856C115.825 19.3926 122.327 27.3276 122.582 40.7186C123.024 64.8856 99.8749 60.5636 68.5459 51.3076L69.5459 44.2676C69.5459 44.2676 107.062 51.3606 101.967 39.1676C99.8329 34.0686 97.3489 29.1446 96.0279 24.7266Z" fill="white"/>
<path d="M109.196 58.2354C109.196 58.2354 108.423 84.9604 139.696 89.9584L140.906 84.2934C140.906 84.2934 115.86 78.0854 132.039 61.4534L109.196 58.2354Z" fill="#24285B"/>
<path opacity="0.08" d="M59.94 94.1742C61.8178 94.1742 63.34 93.611 63.34 92.9162C63.34 92.2214 61.8178 91.6582 59.94 91.6582C58.0623 91.6582 56.54 92.2214 56.54 92.9162C56.54 93.611 58.0623 94.1742 59.94 94.1742Z" fill="black"/>
<path opacity="0.08" d="M46.9371 90.9183C48.8149 90.9183 50.3371 90.3551 50.3371 89.6603C50.3371 88.9656 48.8149 88.4023 46.9371 88.4023C45.0593 88.4023 43.5371 88.9656 43.5371 89.6603C43.5371 90.3551 45.0593 90.9183 46.9371 90.9183Z" fill="black"/>
<path opacity="0.08" d="M33.8443 93.433C35.7221 93.433 37.2443 92.8698 37.2443 92.175C37.2443 91.4802 35.7221 90.917 33.8443 90.917C31.9666 90.917 30.4443 91.4802 30.4443 92.175C30.4443 92.8698 31.9666 93.433 33.8443 93.433Z" fill="black"/>
<path opacity="0.08" d="M13.7975 94.6957C15.6752 94.6957 17.1975 94.1325 17.1975 93.4377C17.1975 92.7429 15.6752 92.1797 13.7975 92.1797C11.9197 92.1797 10.3975 92.7429 10.3975 93.4377C10.3975 94.1325 11.9197 94.6957 13.7975 94.6957Z" fill="black"/>
<path opacity="0.08" d="M72.8304 90.6357C74.7491 90.6357 76.3044 90.0581 76.3044 89.3457C76.3044 88.6332 74.7491 88.0557 72.8304 88.0557C70.9118 88.0557 69.3564 88.6332 69.3564 89.3457C69.3564 90.0581 70.9118 90.6357 72.8304 90.6357Z" fill="black"/>
<path d="M69.3506 45.4238C69.3506 45.4238 60.7286 44.5128 59.9716 47.8808C59.2146 51.2488 60.8716 53.0338 68.6256 50.5448L69.3506 45.4238Z" fill="#F4A28C"/>
<path d="M155.248 45.3177C155.248 45.3177 154.006 50.3487 149.034 49.2877C144.062 48.2267 147.612 42.0567 155.248 45.3177Z" fill="#F4A28C"/>
</svg>
