<svg width="80" height="80" viewBox="0 0 80 80" fill="none" xmlns="http://www.w3.org/2000/svg">
<path d="M52.6459 78.735H27.3555C27.3552 77.4065 27.6166 76.0909 28.1249 74.8634C28.6331 73.636 29.3783 72.5207 30.3177 71.5813C31.2571 70.6419 32.3724 69.8968 33.5999 69.3885C34.8273 68.8803 36.1429 68.6188 37.4715 68.6191H42.5299C43.8584 68.6188 45.174 68.8803 46.4015 69.3885C47.6289 69.8968 48.7442 70.6419 49.6837 71.5813C50.6231 72.5207 51.3682 73.636 51.8765 74.8634C52.3847 76.0909 52.6462 77.4065 52.6459 78.735V78.735Z" fill="#E6E9ED"/>
<path d="M26.5551 78.735H1.26466C1.26287 77.4061 1.5233 76.0898 2.03105 74.8617C2.53879 73.6336 3.28386 72.5177 4.22357 71.578C5.16329 70.6383 6.27918 69.8933 7.50732 69.3855C8.73545 68.8778 10.0517 68.6174 11.3807 68.6191H16.4391C17.7676 68.6188 19.0832 68.8803 20.3107 69.3885C21.5381 69.8968 22.6534 70.6419 23.5929 71.5813C24.5323 72.5207 25.2774 73.636 25.7857 74.8635C26.2939 76.0909 26.5554 77.4065 26.5551 78.735Z" fill="#B4DD7F"/>
<path d="M62.2973 69.8825C62.2973 70.8886 62.697 71.8535 63.4084 72.565C64.1199 73.2764 65.0848 73.6761 66.0909 73.6761C67.097 73.6761 68.062 73.2764 68.7734 72.565C69.4848 71.8535 69.8845 70.8886 69.8845 69.8825C69.8892 69.4737 69.8207 69.0672 69.6821 68.6825L69.6949 68.6697C72.1775 68.938 74.4736 70.1139 76.1421 71.9717C77.8106 73.8295 78.734 76.2382 78.7349 78.7352H53.4453C53.4461 76.238 54.3693 73.8291 56.0379 71.9712C57.7064 70.1132 60.0025 68.9372 62.4853 68.6689L62.4981 68.6817C62.36 69.0668 62.292 69.4735 62.2973 69.8825V69.8825Z" fill="#B4DD7F"/>
<path d="M69.8841 69.884C69.8841 70.8901 69.4844 71.855 68.773 72.5664C68.0615 73.2779 67.0966 73.6775 66.0905 73.6775C65.0844 73.6775 64.1194 73.2779 63.408 72.5664C62.6966 71.855 62.2969 70.8901 62.2969 69.884C62.3027 69.1828 62.4993 68.4964 62.8657 67.8984C63.8743 68.3731 64.9753 68.6192 66.0901 68.6192C67.2048 68.6192 68.3058 68.3731 69.3145 67.8984C69.6808 68.4964 69.8774 69.1828 69.8833 69.884H69.8841Z" fill="#F0D0B4"/>
<path d="M73.6773 59.7642V61.029C73.6774 62.4697 73.2671 63.8805 72.4945 65.0965C71.722 66.3125 70.6191 67.2833 69.3149 67.8953C68.3063 68.37 67.2053 68.6161 66.0905 68.6161C64.9758 68.6161 63.8748 68.37 62.8661 67.8953C61.5622 67.2836 60.4594 66.3132 59.6867 65.0976C58.914 63.8821 58.5034 62.4717 58.5029 61.0314V59.7642C58.5042 58.0885 59.1705 56.4817 60.3554 55.2968C61.5404 54.1119 63.1472 53.4456 64.8229 53.4443H67.3517C69.0285 53.4441 70.6367 54.1097 71.8229 55.2948C73.009 56.4799 73.6761 58.0875 73.6773 59.7642V59.7642Z" fill="#434A54"/>
<path d="M47.5865 59.7642V61.029C47.5865 63.0412 46.7871 64.971 45.3643 66.3939C43.9414 67.8168 42.0116 68.6161 39.9993 68.6161C37.9871 68.6161 36.0572 67.8168 34.6343 66.3939C33.2115 64.971 32.4121 63.0412 32.4121 61.029V59.7642C32.4134 58.0885 33.0796 56.4817 34.2646 55.2968C35.4496 54.1119 37.0563 53.4456 38.7321 53.4443H41.2609C42.9377 53.4441 44.5459 54.1097 45.732 55.2948C46.9182 56.4799 47.5852 58.0875 47.5865 59.7642V59.7642Z" fill="#434A54"/>
<path d="M58.5037 10.1165L57.2773 10.4197C56.2099 10.6903 55.2592 11.3001 54.5683 12.1576C53.8774 13.015 53.4836 14.0735 53.4461 15.174H52.1813C51.2516 15.1718 50.3547 15.518 49.6677 16.1444L49.6549 16.1316C49.6549 16.1316 49.3349 15.2588 49.0229 14.0709C48.6512 12.7835 48.4379 11.4555 48.3877 10.1165C48.3872 9.03215 48.749 7.97871 49.4158 7.12355C50.0825 6.26838 51.0159 5.66054 52.0677 5.39659L53.4461 5.05499C54.2256 3.88862 55.2808 2.93251 56.5181 2.27136C57.7555 1.61021 59.1368 1.26443 60.5397 1.26465H63.8909C66.4856 1.26804 68.973 2.30026 70.8078 4.13495C72.6425 5.96965 73.6747 8.45705 73.6781 11.0517C73.6821 12.1053 73.5112 13.1523 73.1725 14.1501L72.4893 16.2108C71.7852 15.545 70.8536 15.173 69.8845 15.1708H68.6197C68.6176 14.5008 68.3505 13.8588 67.8767 13.3851C67.4029 12.9113 66.7609 12.6442 66.0909 12.6421H61.0325C60.3633 12.6373 59.7229 12.3693 59.2497 11.8961C58.7765 11.4229 58.5085 10.7825 58.5037 10.1133V10.1165Z" fill="#434A54"/>
<path d="M21.4976 58.5027V61.0314C21.4976 63.0436 20.6983 64.9734 19.2754 66.3963C17.8525 67.8192 15.9227 68.6185 13.9104 68.6185C11.8982 68.6185 9.96836 67.8192 8.54548 66.3963C7.12261 64.9734 6.32324 63.0436 6.32324 61.0314V54.7115C6.32345 54.3759 6.4567 54.0541 6.69378 53.8166C6.93086 53.579 7.25244 53.4452 7.58804 53.4443H16.4392C17.1036 53.4441 17.7614 53.5748 18.3753 53.8289C18.9891 54.0831 19.5468 54.4557 20.0165 54.9254C20.4863 55.3952 20.8589 55.9529 21.113 56.5667C21.3672 57.1805 21.4979 57.8383 21.4976 58.5027Z" fill="#B27946"/>
<path d="M54.4295 39.8222L57.9703 47.6117H42.7959V43.4893C42.7979 41.4421 43.508 39.4587 44.8057 37.8753C46.1035 36.292 47.9089 35.2062 49.9159 34.8023L51.9647 34.3975L54.4295 39.8222Z" fill="#FCD770"/>
<path d="M78.7359 43.4893V47.6117H63.5615L67.1023 39.8222L69.5679 34.3975L71.6167 34.8023C73.6239 35.2058 75.4296 36.2914 76.7274 37.8749C78.0252 39.4583 78.7352 41.442 78.7367 43.4893H78.7359Z" fill="#FCD770"/>
<path d="M61.9547 40.0889L63.2195 47.676H58.1611L59.4259 40.0889H61.9547Z" fill="#FF826E"/>
<path d="M63.014 36.7439L61.9516 39.9439H59.4228L58.3604 36.7439L60.6868 34.8848L63.014 36.7439Z" fill="#FC6E51"/>
<path d="M59.3409 40.0536L58.0761 47.6407L54.5361 39.8512L58.2793 36.8545L59.3409 40.0536Z" fill="#B4DD7F"/>
<path d="M63.0976 36.8545L66.8408 39.8512L63.3 47.6407L62.0352 40.0536L63.0976 36.8545Z" fill="#B4DD7F"/>
<path d="M55.5666 32.335L60.6122 34.8509L58.2858 36.7101L54.5426 39.7068L52.0762 34.2821L53.0754 34.0797C53.5884 33.976 54.0744 33.7676 54.5031 33.4673C54.9317 33.1671 55.2938 32.7816 55.5666 32.335V32.335Z" fill="#A0D468"/>
<path d="M61.0332 34.8509L66.0788 32.335C66.3516 32.7816 66.7136 33.1671 67.1423 33.4673C67.571 33.7676 68.057 33.976 68.57 34.0797L69.5692 34.2821L67.1036 39.7068L63.3604 36.7101L61.0332 34.8509Z" fill="#A0D468"/>
<path d="M44.8659 37.5322C43.3575 39.1632 42.5219 41.3043 42.5267 43.5257V47.6481H37.4683L34.9395 37.5322H44.8659Z" fill="#CF9E76"/>
<path d="M23.0639 37.5322L20.5319 47.6481H14.2119L16.7407 37.5322H23.0639Z" fill="#CF9E76"/>
<path d="M52.2739 22.7614C52.6533 23.828 53.267 24.796 54.0699 25.5942C54.5229 26.0555 55.038 26.4513 55.6003 26.7701L55.5875 26.7829L54.8675 30.3997C54.782 30.8338 54.6194 31.2492 54.3875 31.6261C54.1148 32.0727 53.7527 32.4582 53.324 32.7584C52.8954 33.0587 52.4093 33.2671 51.8963 33.3708L50.8971 33.5732L48.8483 33.978C47.0094 34.3456 45.3353 35.289 44.0683 36.6716H3.79395V6.32324H48.6083C48.0411 6.77968 47.5831 7.35727 47.268 8.01368C46.953 8.67009 46.7888 9.38868 46.7875 10.1168C46.8364 11.4568 47.0487 12.7858 47.4195 14.0743C47.7395 15.2631 48.0515 16.1351 48.0515 16.1351L48.0643 16.1479C47.6604 16.4979 47.3368 16.9312 47.1159 17.4179C46.895 17.9046 46.7819 18.4333 46.7843 18.9679C46.7858 19.9735 47.186 20.9375 47.8971 21.6487C48.6082 22.3598 49.5723 22.7599 50.5779 22.7614H52.2739Z" fill="#E6E9ED"/>
<path d="M42.4329 14.2178V24.3336H32.3169V19.2761H29.7881V14.2178H42.4329Z" fill="#FF826E"/>
<path d="M32.0133 24.4743V32.0614H16.8389V24.4743H21.8973V19.416H32.0133V24.4743Z" fill="#FFEAA7"/>
<path d="M21.4973 18.967V24.0253H8.85254V11.3799H21.4973V18.967Z" fill="#FF826E"/>
<path d="M65.7699 32.2212L60.7243 34.7371L55.6787 32.2212C55.9106 31.8443 56.0732 31.4289 56.1587 30.9948L56.8787 27.378L56.8915 27.3652C58.0516 28.0521 59.3749 28.4146 60.7231 28.4146C62.0713 28.4146 63.3947 28.0521 64.5547 27.3652L64.5675 27.378L65.2875 30.9948C65.3731 31.4289 65.5356 31.8443 65.7675 32.2212H65.7699Z" fill="#F0D0B4"/>
<path d="M72.5647 21.9753C72.213 22.328 71.7952 22.6079 71.3352 22.7989C70.8751 22.9898 70.3819 23.0881 69.8839 23.0881H68.1895C68.4741 22.2754 68.6194 21.4204 68.6191 20.5593V15.501H69.8839C70.6342 15.5005 71.3678 15.7227 71.9918 16.1394C72.6157 16.5561 73.102 17.1485 73.3891 17.8418C73.6761 18.535 73.751 19.2978 73.6043 20.0337C73.4575 20.7695 73.0957 21.4452 72.5647 21.9753V21.9753Z" fill="#F0D0B4"/>
<path d="M68.6198 15.1755V20.2338C68.6234 21.5575 68.2781 22.8587 67.6187 24.0064C66.9593 25.1541 66.0091 26.1078 64.8638 26.7713C63.7037 27.4582 62.3803 27.8207 61.0322 27.8207C59.684 27.8207 58.3606 27.4582 57.2006 26.7713C56.6382 26.4525 56.1231 26.0567 55.6702 25.5954C54.9622 24.8938 54.4009 24.0584 54.0189 23.1378C53.637 22.2171 53.442 21.2297 53.4454 20.233V15.1755C53.4828 14.075 53.8766 13.0164 54.5676 12.159C55.2585 11.3016 56.2092 10.6918 57.2766 10.4212L58.5038 10.1172C58.5086 10.7864 58.7765 11.4268 59.2497 11.9C59.7229 12.3732 60.3634 12.6411 61.0326 12.6459H66.091C66.761 12.6481 67.403 12.9152 67.8768 13.3889C68.3505 13.8627 68.6176 14.5047 68.6198 15.1747V15.1755Z" fill="#F0D0B4"/>
<path d="M52.8807 20.5593C52.8803 21.4204 53.0256 22.2754 53.3103 23.0881H51.6159C50.6102 23.0866 49.6461 22.6864 48.935 21.9753C48.2239 21.2642 47.8237 20.3002 47.8223 19.2945C47.8314 18.2913 48.2341 17.3317 48.9435 16.6222C49.653 15.9128 50.6126 15.5102 51.6159 15.501H52.8807V20.5593Z" fill="#F0D0B4"/>
<path d="M71.7016 32.7447L68.5896 32.1351C68.0936 32.042 67.6364 31.8038 67.2759 31.4506C66.9155 31.0974 66.668 30.6451 66.5648 30.1511L65.9928 27.3512C67.185 26.4904 68.1467 25.349 68.7928 24.028H69.6728C71.0273 24.0391 72.331 23.5131 73.2984 22.565C74.2658 21.6169 74.8181 20.3241 74.8344 18.9697C74.8297 17.8723 74.4595 16.8078 73.7824 15.9442L74.2544 14.5554C74.638 13.4286 74.8337 12.2465 74.8336 11.0562C74.8 8.09599 73.594 5.26984 71.48 3.19737C69.3659 1.12489 66.5164 -0.024775 63.556 0.000405065H60.1352C58.586 -0.00527591 57.0565 0.34801 55.6667 1.03256C54.2769 1.71711 53.0646 2.7143 52.1248 3.94595L51.184 4.17714C50.471 4.35124 49.7941 4.64908 49.184 5.05713H2.5808V37.9366H15.12L13.1856 45.5197H0V48.0485H80V42.6622C79.9775 40.3041 79.1382 38.0267 77.6251 36.218C76.112 34.4092 74.0187 33.1809 71.7016 32.7423V32.7447ZM33.8312 37.935L35.7664 45.5197H22.2984L24.2336 37.9326L33.8312 37.935ZM36.492 37.935H42.504C41.7115 39.3845 41.2946 41.0094 41.2912 42.6614V45.5197H38.4272L36.492 37.935ZM43.8712 42.6614C43.8881 40.8929 44.5174 39.1849 45.6521 37.8284C46.7868 36.4718 48.3567 35.5506 50.0944 35.2215L51.1848 35.0079L56.0648 45.5205H43.8712V42.6614ZM55.8632 33.2119L58.2632 34.3879L54.9392 36.9942L53.764 34.4599C54.5533 34.218 55.273 33.79 55.8624 33.2119H55.8632ZM61.0048 37.9318H60.2848L59.7768 36.4383L60.6448 35.7583L61.5128 36.4383L61.0048 37.9318ZM58.0296 39.299L57.488 42.4878L56.0432 39.3678L57.6304 38.1238L58.0296 39.299ZM60.448 40.4614H60.8432L61.7032 45.5197H59.5872L60.448 40.4614ZM63.2608 39.299L63.6608 38.123L65.248 39.367L63.8032 42.487L63.2608 39.299ZM67.5256 34.4583L66.3504 36.9926L63.0264 34.3863L65.4264 33.2103C66.0165 33.7875 66.7359 34.2154 67.5248 34.4583H67.5256ZM64.0352 30.6423C64.0608 30.7687 64.1048 30.8887 64.14 31.0119L60.6448 32.7279L57.1496 31.0159C57.1848 30.8935 57.2296 30.7759 57.2544 30.6463L57.676 28.5824C59.599 29.2511 61.6914 29.2511 63.6144 28.5824L64.0352 30.6423ZM67.0968 20.2321C67.0642 21.9216 66.3702 23.5309 65.1638 24.7142C63.9574 25.8975 62.335 26.5604 60.6452 26.5604C58.9554 26.5604 57.333 25.8975 56.1266 24.7142C54.9202 23.5309 54.2262 21.9216 54.1936 20.2321V15.3298C54.1986 14.4796 54.4883 13.6556 55.0164 12.9893C55.5445 12.323 56.2806 11.8528 57.1072 11.6538C57.4185 12.3297 57.9175 12.9017 58.5449 13.3017C59.1723 13.7017 59.9015 13.9128 60.6456 13.9098H65.8072C66.1459 13.907 66.4718 14.0386 66.7137 14.2756C66.9555 14.5127 67.0936 14.8359 67.0976 15.1746L67.0968 20.2321ZM69.68 21.4969H69.5768C69.6419 21.0784 69.6764 20.6556 69.68 20.2321V16.4386C70.0159 16.4326 70.3497 16.4936 70.6618 16.618C70.9739 16.7424 71.258 16.9278 71.4977 17.1632C71.7374 17.3987 71.9278 17.6795 72.0577 17.9893C72.1877 18.2991 72.2546 18.6317 72.2546 18.9677C72.2546 19.3037 72.1877 19.6363 72.0577 19.9461C71.9278 20.2559 71.7374 20.5368 71.4977 20.7722C71.258 21.0077 70.9739 21.193 70.6618 21.3174C70.3497 21.4419 70.0159 21.5029 69.68 21.4969V21.4969ZM51.8104 6.62911L53.6992 6.16591L53.9752 5.76032C54.6605 4.76008 55.5801 3.9427 56.6538 3.3795C57.7275 2.81629 58.9227 2.52436 60.1352 2.52917H63.556C65.84 2.50847 68.039 3.39463 69.6705 4.99323C71.3019 6.59182 72.2326 8.77229 72.2584 11.0562C72.2581 11.9738 72.1073 12.8851 71.812 13.7538L71.6288 14.2914C71.0087 14.041 70.3464 13.9117 69.6776 13.9106H69.4376C69.1644 13.1673 68.6692 12.526 68.0192 12.0737C67.3693 11.6214 66.5959 11.3798 65.804 11.3818H60.6448C60.4761 11.3861 60.3082 11.3565 60.1511 11.2949C59.994 11.2332 59.8508 11.1408 59.73 11.023C59.6091 10.9051 59.5131 10.7643 59.4475 10.6088C59.382 10.4533 59.3482 10.2862 59.3482 10.1175C59.3482 9.94868 59.382 9.78162 59.4475 9.6261C59.5131 9.47059 59.6091 9.32977 59.73 9.21194C59.8508 9.09411 59.994 9.00166 60.1511 8.94003C60.3082 8.87839 60.4761 8.84883 60.6448 8.85307H61.9352V6.32031H60.6448C59.8072 6.31594 58.9908 6.58371 58.3184 7.08333C57.6461 7.58295 57.1542 8.28739 56.9168 9.09067L56.4984 9.19307C55.3556 9.46773 54.3113 10.0537 53.4814 10.8858C52.6515 11.718 52.0684 12.7639 51.7968 13.9074H51.612C50.9845 13.9114 50.3628 14.0284 49.7768 14.253C49.35 12.9117 49.0994 11.5206 49.0312 10.1147C49.036 9.306 49.3127 8.52247 49.8166 7.89C50.3205 7.25753 51.0225 6.81288 51.8096 6.62751L51.8104 6.62911ZM51.6128 16.4394V20.2321C51.6164 20.6556 51.6509 21.0784 51.716 21.4969H51.6128C51.2769 21.5029 50.9431 21.4419 50.631 21.3174C50.3189 21.193 50.0348 21.0077 49.7951 20.7722C49.5554 20.5368 49.3651 20.2559 49.2351 19.9461C49.1051 19.6363 49.0382 19.3037 49.0382 18.9677C49.0382 18.6317 49.1051 18.2991 49.2351 17.9893C49.3651 17.6795 49.5554 17.3987 49.7951 17.1632C50.0348 16.9278 50.3189 16.7424 50.631 16.618C50.9431 16.4936 51.2769 16.4326 51.6128 16.4386V16.4394ZM5.1616 7.58749H47.0296C46.6543 8.378 46.4568 9.24119 46.4512 10.1163C46.5519 12.0728 46.929 14.0053 47.5712 15.8562C46.8516 16.7341 46.4561 17.833 46.4512 18.9681C46.4675 20.3225 47.0198 21.6153 47.9872 22.5634C48.9546 23.5115 50.2583 24.0375 51.6128 24.0264H52.4928C53.1389 25.3474 54.1006 26.4888 55.2928 27.3496L54.7208 30.1496C54.6174 30.6435 54.3699 31.0956 54.0094 31.4488C53.649 31.8019 53.1919 32.0402 52.696 32.1335L49.584 32.7431C47.6506 33.1222 45.8656 34.0456 44.4392 35.4047H5.1616V7.58749ZM17.7816 37.935H21.5728L19.6376 45.5197H15.8464L17.7816 37.935ZM77.4192 45.5197H65.2296L70.1096 35.0071L71.2 35.2231C72.9376 35.5525 74.5073 36.4738 75.6419 37.8303C76.7766 39.1868 77.406 40.8946 77.4232 42.663L77.4192 45.5197Z" fill="black"/>
<path d="M42.9943 12.645H27.8199V17.7033H22.7623V10.1162H7.58789V25.2904H15.1751V32.8775H32.8783V25.2904H42.9943V12.645ZM10.1143 12.645H20.2327V22.7608H10.1167L10.1143 12.645ZM30.3495 30.3479H17.7039V25.2904H22.7623V20.2321H30.3495V30.3479ZM40.4679 22.7608H32.8783V17.7033H30.3495V15.1745H40.4679V22.7608Z" fill="black"/>
<path d="M71.6 67.7999C72.605 66.9799 73.4165 65.9481 73.9765 64.7782C74.5366 63.6082 74.8314 62.3291 74.84 61.0321V59.7681C74.8172 57.7358 73.9891 55.7956 72.5374 54.3732C71.0858 52.9508 69.1291 52.1624 67.0968 52.181H64.516C62.484 52.1628 60.5277 52.9515 59.0764 54.3738C57.6251 55.7962 56.7972 57.7361 56.7744 59.7681V61.0328C56.7828 62.3298 57.0774 63.6088 57.6372 64.7787C58.197 65.9486 59.0082 66.9805 60.0128 67.8007C58.4979 68.219 57.0847 68.943 55.8602 69.9281C54.6357 70.9132 53.6258 72.1385 52.8928 73.5287C52.1572 72.146 51.1494 70.9265 49.93 69.9436C48.7106 68.9607 47.305 68.2348 45.7976 67.8095C46.805 66.9901 47.6176 65.957 48.1769 64.785C48.7361 63.613 49.0279 62.3314 49.0312 61.0328V59.7681C49.0084 57.7363 48.1806 55.7964 46.7295 54.3741C45.2783 52.9518 43.3223 52.1631 41.2904 52.181H38.7096C36.6776 52.1628 34.7213 52.9515 33.27 54.3738C31.8187 55.7962 30.9908 57.7361 30.968 59.7681V61.0328C30.9713 62.3314 31.2631 63.613 31.8224 64.785C32.3816 65.957 33.1942 66.9901 34.2016 67.8095C32.6926 68.235 31.2855 68.9619 30.0653 69.9464C28.8452 70.9309 27.8372 72.1525 27.1024 73.5375C26.3674 72.1512 25.3591 70.9283 24.1384 69.9425C22.9177 68.9566 21.5099 68.2283 20 67.8015C21.0048 66.9821 21.8152 65.95 22.3729 64.7795C22.9305 63.609 23.2215 62.3294 23.2248 61.0328V58.5009C23.205 56.8083 22.5148 55.1926 21.3057 54.0079C20.0966 52.8232 18.4671 52.1663 16.7744 52.181H7.7416C7.06442 52.1754 6.41263 52.4384 5.92893 52.9124C5.44523 53.3863 5.16903 54.0326 5.1608 54.7097V61.0297C5.16411 62.3282 5.45592 63.6098 6.01515 64.7818C6.57438 65.9538 7.38705 66.9869 8.3944 67.8063C5.99658 68.4667 3.87961 69.8912 2.36467 71.8636C0.849735 73.8361 0.0195236 76.2488 0 78.7358V80.0006H80V78.7358C79.9893 76.245 79.1619 73.8264 77.6446 71.8511C76.1273 69.8757 74.0039 68.4526 71.6 67.7999V67.7999ZM68.388 69.8799C68.388 70.5644 68.1161 71.2208 67.6321 71.7048C67.1481 72.1888 66.4917 72.4607 65.8072 72.4607C65.1227 72.4607 64.4663 72.1888 63.9823 71.7048C63.4983 71.2208 63.2264 70.5644 63.2264 69.8799C63.234 69.757 63.2508 69.6347 63.2768 69.5143C64.9285 70.0016 66.6859 70.0016 68.3376 69.5143C68.3635 69.6361 68.3801 69.7596 68.3872 69.8839L68.388 69.8799ZM59.3552 61.0328V59.7681C59.3715 58.4137 59.9238 57.1209 60.8912 56.1728C61.8586 55.2247 63.1623 54.6986 64.5168 54.7097H67.0976C68.4521 54.6986 69.7558 55.2247 70.7232 56.1728C71.6906 57.1209 72.2429 58.4137 72.2592 59.7681V61.0328C72.2493 62.2427 71.8936 63.4245 71.2343 64.4389C70.5749 65.4533 69.6392 66.2581 68.5376 66.7584C67.6775 67.1458 66.7448 67.3458 65.8015 67.345C64.8582 67.3441 63.9258 67.1425 63.0664 66.7536C61.9671 66.2526 61.0338 65.448 60.3763 64.4346C59.7188 63.4211 59.3646 62.2409 59.3552 61.0328V61.0328ZM33.5488 61.0328V59.7681C33.5651 58.4137 34.1174 57.1209 35.0848 56.1728C36.0522 55.2247 37.3559 54.6986 38.7104 54.7097H41.2912C42.6457 54.6986 43.9494 55.2247 44.9168 56.1728C45.8842 57.1209 46.4366 58.4137 46.4528 59.7681V61.0328C46.4202 62.7223 45.7262 64.3316 44.5198 65.5149C43.3134 66.6982 41.691 67.3611 40.0012 67.3611C38.3114 67.3611 36.689 66.6982 35.4826 65.5149C34.2762 64.3316 33.5822 62.7223 33.5496 61.0328H33.5488ZM37.42 69.8847H42.5816C44.7316 69.8715 46.815 70.6298 48.4534 72.022C50.0918 73.4142 51.1765 75.3479 51.5104 77.4718H28.4904C28.8243 75.3479 29.909 73.4142 31.5474 72.022C33.1858 70.6298 35.2692 69.8715 37.4192 69.8847H37.42ZM7.74 61.0328V54.7129H16.772C17.7872 54.7042 18.7645 55.0978 19.4902 55.8076C20.216 56.5175 20.6311 57.4858 20.6448 58.5009V61.0297C20.6122 62.7191 19.9182 64.3284 18.7118 65.5117C17.5054 66.695 15.883 67.3579 14.1932 67.3579C12.5034 67.3579 10.881 66.695 9.67459 65.5117C8.46823 64.3284 7.77419 62.7191 7.7416 61.0297L7.74 61.0328ZM2.672 77.471C3.00746 75.3456 4.09423 73.4111 5.73486 72.0188C7.37549 70.6266 9.46111 69.8691 11.6128 69.8839H16.7744C18.9261 69.8691 21.0117 70.6266 22.6523 72.0188C24.293 73.4111 25.3797 75.3456 25.7152 77.471H2.672ZM54.2936 77.471C54.5475 75.7782 55.2856 74.195 56.4189 72.9121C57.5521 71.6293 59.0322 70.7015 60.6808 70.2407C60.793 71.5224 61.3815 72.7155 62.3301 73.5847C63.2787 74.4539 64.5186 74.936 65.8052 74.936C67.0918 74.936 68.3317 74.4539 69.2803 73.5847C70.2289 72.7155 70.8174 71.5224 70.9296 70.2407C72.5799 70.6999 74.0621 71.6265 75.1977 72.909C76.3332 74.1914 77.0736 75.7749 77.3296 77.4686L54.2936 77.471Z" fill="black"/>
</svg>
