<svg width="80" height="80" viewBox="0 0 80 80" fill="none" xmlns="http://www.w3.org/2000/svg">
<path d="M73.3333 22.6816H6.66539C5.95836 22.6816 5.28028 22.9625 4.78027 23.4624C4.28025 23.9623 3.99924 24.6403 3.99902 25.3474V73.3367H75.9981V25.3474C75.9979 24.6406 75.7171 23.9628 75.2174 23.4629C74.7177 22.9631 74.0401 22.6821 73.3333 22.6816Z" fill="#57A4FF"/>
<path d="M76.0009 25.3474V73.3367H70.6665V25.3474C70.6644 24.641 70.3829 23.9642 69.8835 23.4647C69.384 22.9653 68.7073 22.6838 68.001 22.6816H73.3329C74.0396 22.6831 74.717 22.9644 75.217 23.4639C75.7169 23.9634 75.9988 24.6406 76.0009 25.3474Z" fill="#2488FF"/>
<path d="M78.6656 70.6699L77.7056 76.4422C77.6004 77.0636 77.2792 77.6279 76.7985 78.0356C76.3178 78.4432 75.7087 78.668 75.0784 78.6703H4.91936C4.28927 78.6678 3.68029 78.4429 3.1998 78.0353C2.71931 77.6277 2.39816 77.0635 2.293 76.4422L1.33301 70.6699H34.6662V73.3356H45.3324V70.6699H78.6656Z" fill="#E0E0E2"/>
<path d="M78.6653 70.6699L77.7053 76.4422C77.6003 77.0634 77.2793 77.6276 76.799 78.0352C76.3186 78.4429 75.7097 78.6678 75.0797 78.6703H68.415C69.0448 78.6678 69.6535 78.4432 70.1338 78.0358C70.6141 77.6285 70.9353 77.0647 71.0406 76.4438L72.0006 70.6699H78.6653Z" fill="#C6C5CA"/>
<path d="M78.6662 21.3479C78.6649 25.1224 77.5953 28.8194 75.5812 32.0115C73.567 35.2036 70.6905 37.7604 67.2843 39.3862C63.8781 41.0121 60.0814 41.6405 56.333 41.199C52.5846 40.7574 49.0378 39.2638 46.1026 36.891L41.3443 38.6775L42.5707 33.1572C40.3156 30.1015 38.9793 26.4656 38.7187 22.6768C38.6923 22.2367 38.6787 21.7967 38.6787 21.3439C38.6787 16.0408 40.7852 10.955 44.5349 7.20511C48.2845 3.45527 53.3701 1.34863 58.6728 1.34863C63.9756 1.34863 69.0612 3.45527 72.8108 7.20511C76.5605 10.955 78.667 16.0408 78.667 21.3439L78.6662 21.3479Z" fill="#FFDE55"/>
<path d="M78.6655 21.3479C78.664 25.1224 77.5943 28.8194 75.5799 32.0114C73.5656 35.2034 70.689 37.7601 67.2827 39.3857C63.8765 41.0114 60.0796 41.6397 56.3313 41.1979C52.5829 40.7562 49.0362 39.2624 46.1011 36.8894L41.3428 38.6775L42.5692 33.1572C42.4356 32.9708 42.3028 32.7836 42.1828 32.5972C46.0346 35.1862 50.667 36.3547 55.2858 35.9022C59.9047 35.4498 64.2223 33.4046 67.4986 30.1173C70.7748 26.83 72.8055 22.5054 73.2426 17.8848C73.6798 13.2642 72.496 8.6354 69.8944 4.79199C72.596 6.62668 74.8076 9.09454 76.3365 11.9803C77.8653 14.8661 78.6649 18.0821 78.6655 21.3479V21.3479Z" fill="#FFCD00"/>
<path d="M66.1282 11.8027C66.7945 13.5649 66.8221 15.5049 66.206 17.2853C65.5899 19.0657 64.3692 20.5737 62.7563 21.5471C62.3321 21.7815 61.9762 22.1223 61.7238 22.536C61.4713 22.9497 61.3308 23.422 61.3163 23.9064V24.0128C61.3163 24.7199 61.0354 25.3981 60.5354 25.8981C60.0355 26.3981 59.3574 26.679 58.6503 26.679C57.9433 26.679 57.2652 26.3981 56.7652 25.8981C56.2652 25.3981 55.9843 24.7199 55.9843 24.0128V23.9064C55.9937 22.5002 56.3702 21.1209 57.0768 19.9051C57.7833 18.6893 58.7952 17.6792 60.0123 16.9749C60.4959 16.686 60.8768 16.2528 61.1015 15.7362C61.3262 15.2196 61.3834 14.6456 61.2651 14.0948C61.1646 13.6209 60.9344 13.1843 60.6001 12.8337C60.2659 12.483 59.8408 12.2322 59.3723 12.1091C58.9753 11.996 58.5574 11.9768 58.1517 12.0531C57.746 12.1295 57.3637 12.2992 57.035 12.549C56.7062 12.7987 56.4402 13.1215 56.2578 13.4919C56.0755 13.8623 55.9818 14.27 55.9843 14.6828H50.6524C50.6472 13.4805 50.9157 12.2927 51.4377 11.2095C51.9597 10.1264 52.7215 9.17633 53.6652 8.43135C54.7131 7.59911 55.9513 7.04017 57.2686 6.80474C58.5859 6.56931 59.941 6.66475 61.2123 7.08249C62.3351 7.44717 63.3608 8.06124 64.2126 8.8787C65.0643 9.69615 65.7201 10.6958 66.1306 11.8027H66.1282Z" fill="#FF7956"/>
<path d="M58.6499 36.0111C60.1221 36.0111 61.3155 34.8176 61.3155 33.3454C61.3155 31.8732 60.1221 30.6797 58.6499 30.6797C57.1778 30.6797 55.9844 31.8732 55.9844 33.3454C55.9844 34.8176 57.1778 36.0111 58.6499 36.0111Z" fill="#FF7956"/>
<path d="M38.6554 54.6731V65.3375H3.99902V54.6731C3.99902 53.2589 4.56078 51.9026 5.56071 50.9026C6.56064 49.9026 7.91684 49.3408 9.33095 49.3408H33.3234C34.7376 49.3408 36.0938 49.9026 37.0937 50.9026C38.0936 51.9026 38.6554 53.2589 38.6554 54.6731Z" fill="#FF7956"/>
<path d="M38.6639 54.674V65.3385H33.3319V54.674C33.3319 53.2598 32.7702 51.9036 31.7702 50.9036C30.7703 49.9036 29.4141 49.3418 28 49.3418H33.3319C34.746 49.3418 36.1022 49.9036 37.1022 50.9036C38.1021 51.9036 38.6639 53.2598 38.6639 54.674Z" fill="#FF6243"/>
<path d="M33.333 30.6795V32.0124C33.3332 32.1877 33.2988 32.3613 33.2318 32.5233C33.1648 32.6853 33.0665 32.8325 32.9426 32.9565C32.8186 33.0804 32.6715 33.1787 32.5095 33.2457C32.3475 33.3127 32.1739 33.3471 31.9986 33.3469H29.333V29.3467H31.9986C32.1737 29.3465 32.3472 29.3808 32.5091 29.4477C32.671 29.5146 32.8181 29.6127 32.942 29.7365C33.066 29.8603 33.1643 30.0073 33.2314 30.1691C33.2984 30.3309 33.333 30.5044 33.333 30.6795V30.6795Z" fill="#FFDAAA"/>
<path d="M33.3244 24.017V25.3498L29.3244 29.35V25.3498L18.6605 22.6841L13.331 25.3474V29.3476L9.33107 25.3474V24.017C9.33013 23.5699 9.3703 23.1238 9.45107 22.6841C9.76295 20.8198 10.726 19.1267 12.1689 17.9058C13.6118 16.6849 15.4409 16.0155 17.331 16.0166H25.3309C27.2201 16.016 29.0485 16.6853 30.4908 17.9057C31.9331 19.126 32.896 20.8183 33.2084 22.6817C33.2879 23.1223 33.3268 23.5692 33.3244 24.017V24.017Z" fill="#FFDE55"/>
<path d="M30.6623 49.3418L27.996 60.0063H14.6665L12.001 49.3418L21.3313 54.674L30.6623 49.3418Z" fill="#FFDE55"/>
<path d="M30.6623 49.3417L21.3313 54.6723L12.001 49.3417L17.3329 45.3415V40.2637C18.5472 40.9712 19.9275 41.344 21.3329 41.344C22.7382 41.344 24.1185 40.9712 25.3328 40.2637V45.3423L30.6623 49.3417Z" fill="#FFDAAA"/>
<path d="M29.329 29.3467V33.3469C29.2777 35.4342 28.4126 37.4187 26.9183 38.8768C25.424 40.3349 23.4189 41.151 21.3311 41.1509C19.2433 41.1508 17.2383 40.3345 15.7441 38.8762C14.25 37.418 13.385 35.4334 13.334 33.3461V25.3458L18.6659 22.6816L29.3298 25.3474L29.329 29.3467Z" fill="#FFDAAA"/>
<path d="M33.3309 24.017V25.3498L29.3309 29.35V26.6811L30.6669 25.3474V24.017C30.6678 23.5699 30.6277 23.1238 30.5469 22.6841C30.235 20.8198 29.272 19.1267 27.8291 17.9058C26.3862 16.6849 24.557 16.0155 22.667 16.0166H25.3326C27.2218 16.016 29.0501 16.6853 30.4925 17.9057C31.9348 19.126 32.8977 20.8183 33.2101 22.6817C33.2912 23.1221 33.3317 23.5691 33.3309 24.017Z" fill="#FFCD00"/>
<path d="M30.6648 49.3417L21.3338 54.6723L20.001 53.9139L28.0009 49.3417L22.6689 45.3415V41.2365C23.6099 41.0798 24.5137 40.7499 25.3345 40.2637V45.3423L30.6648 49.3417Z" fill="#FFC477"/>
<path d="M29.3311 25.3474V33.3477C29.3316 34.7509 28.9621 36.1293 28.2598 37.3441C27.5576 38.5588 26.5473 39.5668 25.3311 40.2664C24.1194 40.9801 22.7374 41.3533 21.3312 41.3465C20.8848 41.3452 20.4393 41.3096 19.9984 41.2401C20.9394 41.0833 21.8432 40.7535 22.6639 40.2672C23.8802 39.5676 24.8904 38.5596 25.5927 37.3449C26.2949 36.1301 26.6644 34.7517 26.6639 33.3485V25.3482L17.7744 23.1217L18.6672 22.6816L29.3311 25.3474Z" fill="#FFC477"/>
<path d="M13.331 29.3467V33.3469H10.6638C10.4887 33.3469 10.3152 33.3123 10.1534 33.2452C9.99163 33.1782 9.84463 33.0798 9.72085 32.9559C9.59707 32.832 9.49893 32.6848 9.43205 32.523C9.36516 32.3611 9.33085 32.1876 9.33106 32.0124V30.6795C9.33106 30.326 9.47147 29.987 9.72142 29.7371C9.97136 29.4871 10.3104 29.3467 10.6638 29.3467H13.331Z" fill="#FFDAAA"/>
<path d="M78.6655 69.3371H77.3319V31.6523C78.907 28.8027 79.8089 25.6303 79.9686 22.3783C80.1283 19.1262 79.5414 15.8808 78.253 12.8906C76.9647 9.90037 75.0089 7.2448 72.5357 5.12731C70.0624 3.00982 67.1373 1.48662 63.9845 0.674393C60.8316 -0.13783 57.5347 -0.217512 54.3463 0.441451C51.1579 1.10042 48.1626 2.48054 45.59 4.47607C43.0173 6.47161 40.9356 9.0296 39.5043 11.9541C38.073 14.8785 37.33 18.0918 37.3324 21.3478H34.2797C33.7005 19.4242 32.5182 17.7378 30.9073 16.5376C29.2963 15.3375 27.3422 14.6872 25.3334 14.6827H17.3335C15.3246 14.687 13.3702 15.3372 11.7592 16.5374C10.1481 17.7376 8.96562 19.4241 8.38642 21.3478H6.66644C5.60649 21.3508 4.59081 21.7732 3.84131 22.5227C3.09182 23.2722 2.66945 24.288 2.66649 25.348V69.3371H1.33371C1.14126 69.338 0.951226 69.3801 0.776394 69.4605C0.601563 69.541 0.445984 69.6579 0.320121 69.8035C0.196484 69.9522 0.105347 70.1251 0.0525758 70.3111C-0.000194923 70.4971 -0.0134293 70.6921 0.0137248 70.8836L0.986512 76.6542C1.13551 77.5894 1.61381 78.4405 2.33509 79.054C3.05638 79.6675 3.97317 80.003 4.92006 80H75.0791C76.026 80.003 76.9428 79.6675 77.6641 79.054C78.3854 78.4405 78.8637 77.5894 79.0127 76.6542L79.9863 70.882C80.0134 70.6905 80.0002 70.4955 79.9474 70.3095C79.8947 70.1235 79.8035 69.9506 79.6799 69.8019C79.554 69.6563 79.3984 69.5394 79.2236 69.4589C79.0488 69.3785 78.8587 69.3364 78.6663 69.3355L78.6655 69.3371ZM58.6658 2.6862C63.6151 2.6862 68.3616 4.65241 71.8613 8.15229C75.361 11.6522 77.3271 16.399 77.3271 21.3486C77.3271 26.2982 75.361 31.0451 71.8613 34.5449C68.3616 38.0448 63.6151 40.011 58.6658 40.011C54.3908 40.0253 50.2435 38.5549 46.9323 35.8508C46.6929 35.6621 46.3972 35.5588 46.0923 35.5572C45.9335 35.5578 45.7759 35.5849 45.6259 35.6372L43.1724 36.5725L43.866 33.4523C43.9072 33.2657 43.9071 33.0723 43.8657 32.8857C43.8242 32.6991 43.7424 32.5239 43.626 32.3723C41.2648 29.1822 39.9933 25.3167 39.9996 21.3478C40.0057 16.3994 41.9745 11.6554 45.4739 8.15686C48.9733 4.6583 53.7176 2.69085 58.6658 2.6862V2.6862ZM10.6664 24.0119C10.6665 23.1366 10.839 22.2698 11.1741 21.4611C11.5091 20.6524 12.0002 19.9176 12.6192 19.2987C13.2383 18.6798 13.9731 18.1888 14.7819 17.8539C15.5906 17.519 16.4574 17.3467 17.3327 17.3468H25.3326C26.208 17.3466 27.0749 17.5189 27.8837 17.8537C28.6925 18.1886 29.4275 18.6795 30.0466 19.2984C30.6657 19.9173 31.1568 20.6521 31.4919 21.4609C31.8271 22.2696 31.9996 23.1365 31.9997 24.0119V24.7984L30.6661 26.1312V25.3448C30.6659 25.047 30.5659 24.7579 30.3822 24.5236C30.1985 24.2893 29.9416 24.1232 29.6525 24.0519L18.9863 21.3878C18.6769 21.3095 18.3496 21.3474 18.0663 21.4942L12.7328 24.1599C12.5106 24.268 12.3237 24.4369 12.194 24.6472C12.0642 24.8574 11.9969 25.1002 12 25.3472V26.1336L10.6664 24.8008V24.0119ZM31.9997 30.6794V32.0123H30.6661V30.6794H31.9997ZM21.3334 53.1404L14.4271 49.1946L18.1335 46.4129C18.2981 46.2878 18.4318 46.1266 18.5243 45.9417C18.6168 45.7569 18.6656 45.5532 18.6671 45.3465V42.2895C20.4076 42.805 22.2601 42.805 24.0006 42.2895V45.3425C24.0013 45.5498 24.0498 45.7542 24.1422 45.9398C24.2346 46.1255 24.3684 46.2873 24.5334 46.4129L28.2398 49.1946L21.3334 53.1404ZM28.6133 52.0476L26.9598 58.6726H15.7063L14.0527 52.0476L20.6663 55.8333C20.8708 55.9449 21.1 56.0034 21.333 56.0034C21.566 56.0034 21.7953 55.9449 21.9998 55.8333L28.6133 52.0476ZM21.3334 40.0126C20.4581 40.0127 19.5913 39.8404 18.7826 39.5055C17.9739 39.1706 17.239 38.6797 16.62 38.0608C16.001 37.4419 15.5099 36.7071 15.1748 35.8984C14.8398 35.0897 14.6672 34.2229 14.6671 33.3475V26.172L18.8271 24.0919L27.9998 26.3872V33.3475C27.9997 34.2229 27.8271 35.0897 27.4921 35.8984C27.157 36.7071 26.6659 37.4419 26.0469 38.0608C25.4279 38.6797 24.693 39.1706 23.8843 39.5055C23.0756 39.8404 22.2088 40.0127 21.3334 40.0126ZM10.6664 30.6794H12V32.0123H10.6664V30.6794ZM5.33366 25.3472C5.33334 25.172 5.36758 24.9984 5.43442 24.8364C5.50125 24.6744 5.59938 24.5272 5.72317 24.4032C5.84696 24.2791 5.99399 24.1807 6.15585 24.1136C6.31771 24.0465 6.49121 24.0119 6.66644 24.0119H8.00002V25.3448C8.00259 25.6982 8.14094 26.037 8.38642 26.2912L10.16 28.0665C9.55283 28.184 9.00537 28.5088 8.61133 28.9855C8.2173 29.4622 8.0012 30.061 8.00002 30.6794V32.0123C8.00234 32.7187 8.28403 33.3955 8.78359 33.8949C9.28315 34.3944 9.96001 34.6759 10.6664 34.678H12.1064C12.2891 35.9414 12.729 37.1539 13.3986 38.2407C14.0683 39.3275 14.9536 40.2654 15.9999 40.9967V44.6768L11.56 48.0098H9.3336C7.88538 48.0138 6.4791 48.4964 5.33366 49.3826V25.3472ZM5.33366 54.6733C5.33661 53.6133 5.75898 52.5975 6.50848 51.848C7.25797 51.0985 8.27366 50.676 9.3336 50.6731H10.96L13.3735 60.3255C13.4452 60.6145 13.6114 60.8713 13.8459 61.0548C14.0803 61.2384 14.3694 61.3382 14.6671 61.3384H27.9998C28.2975 61.3382 28.5866 61.2384 28.821 61.0548C29.0555 60.8713 29.2217 60.6145 29.2933 60.3255L31.7069 50.6747H33.3333C34.3932 50.6777 35.4089 51.1001 36.1584 51.8496C36.9079 52.5991 37.3303 53.6149 37.3332 54.6749V64.0049H5.33366V54.6733ZM5.33366 66.6738H38.666C38.8414 66.6739 39.015 66.6394 39.177 66.5723C39.339 66.5051 39.4862 66.4067 39.6101 66.2826C39.734 66.1585 39.8322 66.0111 39.899 65.849C39.9658 65.6868 40 65.5131 39.9996 65.3377V54.6741C39.9995 53.7987 39.827 52.9319 39.4919 52.1232C39.1568 51.3145 38.6658 50.5797 38.0468 49.9608C37.4277 49.3419 36.6929 48.851 35.8841 48.5161C35.0754 48.1812 34.2086 48.0089 33.3333 48.009H31.1061L26.6662 44.676V40.9959C27.7127 40.2645 28.5981 39.3262 29.2678 38.2392C29.9374 37.1521 30.3772 35.9393 30.5597 34.6756H31.9997C32.7057 34.6735 33.3822 34.3923 33.8817 33.8934C34.3811 33.3945 34.6631 32.7183 34.6661 32.0123V30.6794C34.6649 30.061 34.4488 29.4622 34.0548 28.9855C33.6607 28.5088 33.1133 28.184 32.5061 28.0665L34.2797 26.2936C34.5252 26.0394 34.6635 25.7006 34.6661 25.3472V24.0119H37.5196C37.9341 27.4069 39.1749 30.6484 41.1332 33.4523L40.0268 38.3846C39.9758 38.6195 39.9888 38.8637 40.0643 39.0919C40.1399 39.3201 40.2752 39.5238 40.4562 39.6819C40.6373 39.84 40.8574 39.9467 41.0937 39.9908C41.3299 40.0348 41.5737 40.0148 41.7996 39.9326L45.8659 38.3998C50.156 41.6314 55.51 43.1197 60.8523 42.5659C66.1947 42.012 71.1295 39.457 74.6655 35.414V69.3355H45.3323C45.1572 69.3355 44.9837 69.37 44.8219 69.4371C44.6601 69.5042 44.5131 69.6025 44.3893 69.7265C44.2656 69.8504 44.1674 69.9975 44.1005 70.1594C44.0337 70.3213 43.9993 70.4948 43.9995 70.67V72.0028H35.9997V70.67C35.9997 70.4949 35.9652 70.3215 35.8981 70.1597C35.8311 69.998 35.7329 69.851 35.609 69.7272C35.4852 69.6034 35.3381 69.5053 35.1764 69.4383C35.0146 69.3714 34.8412 69.337 34.6661 69.3371H5.33366V66.6738ZM76.3855 76.2182C76.338 76.5304 76.18 76.8152 75.9402 77.0208C75.7005 77.2263 75.3949 77.339 75.0791 77.3383H4.92006C4.60427 77.339 4.2987 77.2263 4.05895 77.0208C3.81921 76.8152 3.6612 76.5304 3.61368 76.2182L2.90729 72.006H33.3325V73.3389C33.3325 73.514 33.367 73.6874 33.434 73.8491C33.501 74.0109 33.5993 74.1579 33.7231 74.2816C33.847 74.4054 33.994 74.5036 34.1558 74.5705C34.3176 74.6375 34.491 74.6719 34.6661 74.6717H45.3323C45.5074 74.6719 45.6808 74.6375 45.8426 74.5705C46.0044 74.5036 46.1514 74.4054 46.2753 74.2816C46.3991 74.1579 46.4974 74.0109 46.5644 73.8491C46.6314 73.6874 46.6659 73.514 46.6659 73.3389V72.0028H77.0919L76.3855 76.2182Z" fill="black"/>
<path d="M50.6687 16.0169H56.0007C56.1759 16.0172 56.3495 15.9829 56.5114 15.9161C56.6734 15.8493 56.8206 15.7511 56.9446 15.6273C57.0687 15.5035 57.167 15.3565 57.2342 15.1946C57.3013 15.0328 57.3359 14.8592 57.3359 14.684C57.3362 14.4841 57.3816 14.2868 57.4685 14.1067C57.5555 13.9267 57.6819 13.7685 57.8382 13.644C58.0086 13.5088 58.2089 13.4165 58.4222 13.3748C58.6356 13.333 58.8559 13.343 59.0646 13.404C59.2882 13.4669 59.4905 13.5895 59.6498 13.7586C59.809 13.9277 59.9192 14.137 59.9686 14.364C60.0337 14.6424 60.009 14.9343 59.8979 15.1978C59.7868 15.4613 59.595 15.6827 59.3502 15.8305C57.9208 16.664 56.7358 17.859 55.9143 19.2954C55.0928 20.7319 54.6638 22.3592 54.6703 24.014C54.6839 25.0749 55.1183 26.087 55.878 26.8276C56.6378 27.5681 57.6606 27.9766 58.7214 27.963C59.7823 27.9494 60.7943 27.5149 61.5348 26.7552C62.2754 25.9954 62.6838 24.9725 62.6702 23.9116C62.6853 23.6577 62.7658 23.412 62.9041 23.1985C63.0423 22.9849 63.2335 22.8109 63.459 22.6932C65.3325 21.5559 66.7514 19.8014 67.4717 17.7314C68.192 15.6614 68.1688 13.4051 67.4061 11.3503C66.9245 10.0515 66.1544 8.87902 65.1537 7.92125C64.153 6.96348 62.948 6.24543 61.6294 5.82123C60.1499 5.34033 58.5746 5.23214 57.0433 5.50624C55.5119 5.78034 54.072 6.42826 52.8511 7.39249C51.7525 8.26341 50.8655 9.37192 50.2567 10.6348C49.6479 11.8976 49.3331 13.282 49.336 14.684C49.336 15.0375 49.4764 15.3765 49.7263 15.6265C49.9763 15.8764 50.3153 16.0169 50.6687 16.0169ZM54.5127 9.47019C55.3902 8.77972 56.4247 8.31682 57.5242 8.12267C58.6237 7.92852 59.7542 8.00913 60.815 8.35734C61.7464 8.65736 62.5976 9.16493 63.3043 9.84177C64.0111 10.5186 64.5549 11.3471 64.895 12.2647C65.4461 13.7372 65.4668 15.3557 64.9534 16.8418C64.44 18.3279 63.4247 19.5885 62.0822 20.4067C61.4467 20.7702 60.9189 21.2956 60.5524 21.9293C60.1859 22.5631 59.9939 23.2827 59.9958 24.0148C59.9958 24.3683 59.8554 24.7073 59.6055 24.9573C59.3555 25.2073 59.0165 25.3477 58.663 25.3477C58.4807 25.3436 58.3011 25.3028 58.1348 25.2279C57.9686 25.1529 57.8191 25.0453 57.6952 24.9114C57.5714 24.7775 57.4758 24.62 57.4141 24.4484C57.3523 24.2768 57.3257 24.0945 57.3359 23.9124C57.3454 22.7356 57.6627 21.5817 58.2562 20.5654C58.8497 19.5492 59.6987 18.7059 60.719 18.1194C61.4384 17.6898 62.0051 17.0456 62.3395 16.2773C62.6738 15.509 62.759 14.6552 62.583 13.836C62.4364 13.1134 62.089 12.4468 61.5807 11.9127C61.0724 11.3786 60.4238 10.9987 59.7094 10.8166C59.3648 10.7286 59.0107 10.6837 58.655 10.683C57.8302 10.6867 57.0266 10.9446 56.3538 11.4216C55.6809 11.8987 55.1715 12.5716 54.8951 13.3488H52.1359C52.4465 11.8154 53.2888 10.4411 54.5143 9.46859L54.5127 9.47019Z" fill="black"/>
<path d="M58.6669 29.3467C57.8758 29.3467 57.1025 29.5813 56.4447 30.0208C55.7869 30.4604 55.2742 31.0851 54.9715 31.8161C54.6687 32.547 54.5895 33.3513 54.7439 34.1273C54.8982 34.9032 55.2791 35.616 55.8386 36.1754C56.398 36.7348 57.1107 37.1158 57.8866 37.2702C58.6625 37.4245 59.4668 37.3453 60.1977 37.0425C60.9286 36.7398 61.5533 36.2271 61.9928 35.5692C62.4323 34.9114 62.6669 34.138 62.6669 33.3469C62.6669 32.2859 62.2455 31.2685 61.4953 30.5183C60.7452 29.7681 59.7278 29.3467 58.6669 29.3467V29.3467ZM58.6669 34.6789C58.4033 34.6791 58.1455 34.601 57.9262 34.4546C57.7069 34.3082 57.5359 34.1001 57.435 33.8565C57.334 33.6129 57.3075 33.3448 57.3589 33.0862C57.4103 32.8276 57.5373 32.59 57.7237 32.4036C57.9102 32.2171 58.1477 32.0902 58.4063 32.0388C58.6649 31.9874 58.933 32.0138 59.1765 32.1148C59.4201 32.2158 59.6283 32.3867 59.7746 32.6061C59.921 32.8254 59.9991 33.0832 59.9989 33.3469C59.9987 33.7001 59.8583 34.0388 59.6086 34.2885C59.3588 34.5383 59.0201 34.6787 58.6669 34.6789V34.6789Z" fill="black"/>
<path d="M69.335 58.6729H72.0005V61.3386H69.335V58.6729Z" fill="black"/>
<path d="M58.667 58.6729H66.6669V61.3386H58.667V58.6729Z" fill="black"/>
<path d="M58.6709 64.0049H72.0003V66.6706H58.6709V64.0049Z" fill="black"/>
<path d="M58.6709 53.3408H72.0003V56.0065H58.6709V53.3408Z" fill="black"/>
<path d="M53.333 58.6729H55.9986V61.3386H53.333V58.6729Z" fill="black"/>
<path d="M42.667 58.6729H50.6669V61.3386H42.667V58.6729Z" fill="black"/>
<path d="M42.668 64.0049H55.9974V66.6706H42.668V64.0049Z" fill="black"/>
<path d="M42.668 53.3408H55.9974V56.0065H42.668V53.3408Z" fill="black"/>
<path d="M17.333 28.0127H19.9986V30.6784H17.333V28.0127Z" fill="black"/>
<path d="M22.667 28.0127H25.3326V30.6784H22.667V28.0127Z" fill="black"/>
</svg>
