<svg width="80" height="68" viewBox="0 0 80 68" fill="none" xmlns="http://www.w3.org/2000/svg">
<path d="M1.1582 58.9354V2.69201C1.1582 2.28418 1.3209 1.89306 1.6105 1.60468C1.9001 1.31631 2.29288 1.1543 2.70244 1.1543H76.367C76.7765 1.1543 77.1693 1.31631 77.4589 1.60468C77.7485 1.89306 77.9112 2.28418 77.9112 2.69201V58.9354C77.9112 59.3432 77.7485 59.7343 77.4589 60.0227C77.1693 60.3111 76.7765 60.4731 76.367 60.4731H2.70244C2.29288 60.4731 1.9001 60.3111 1.6105 60.0227C1.3209 59.7343 1.1582 59.3432 1.1582 58.9354V58.9354Z" fill="#FED23A"/>
<path d="M5.89648 55.7663H73.1738V5.86035H5.89648V55.7663Z" fill="#FFF9E9"/>
<path d="M66.9961 5.86035H73.1738V55.7663H66.9969L66.9961 5.86035Z" fill="#FFF4D6"/>
<path d="M60.3665 66.8483L57.0455 65.3106L53.7246 66.8483V47.0068H60.3665V66.8483Z" fill="#FFABE7"/>
<path d="M57.0438 50.8448C55.872 50.8448 55.105 48.8591 54.0858 48.437C53.0295 48.0001 51.0812 48.8465 50.2905 48.0528C49.4998 47.2591 50.3434 45.3167 49.9054 44.2633C49.4832 43.2468 47.4922 42.4815 47.4922 41.313C47.4922 40.1446 49.4832 39.3793 49.9054 38.3628C50.3434 37.3093 49.495 35.3708 50.2905 34.5732C51.0859 33.7756 53.0326 34.626 54.0858 34.189C55.1042 33.7678 55.872 31.7812 57.0438 31.7812C58.2156 31.7812 58.9826 33.767 60.0018 34.189C61.0582 34.626 63.0065 33.7796 63.7972 34.5732C64.5879 35.3669 63.7442 37.3093 64.1822 38.3628C64.6045 39.3793 66.5954 40.1446 66.5954 41.313C66.5954 42.4815 64.6045 43.2468 64.1822 44.2633C63.7442 45.3167 64.5926 47.2552 63.7972 48.0528C63.0017 48.8504 61.055 48.0001 60.0018 48.437C58.9842 48.8591 58.2172 50.8448 57.0438 50.8448Z" fill="#FF6ED4"/>
<path d="M64.1876 38.3628C63.7496 37.3093 64.598 35.3708 63.8026 34.5732C63.0071 33.7756 61.0604 34.626 60.0072 34.189C58.9888 33.7678 58.221 31.7812 57.0492 31.7812C55.8774 31.7812 55.1104 33.767 54.0912 34.189C54.0493 34.2063 54.005 34.2213 53.96 34.2347C55.0393 34.5606 56.8634 33.8111 57.6272 34.5732C58.4234 35.3669 57.5742 37.3093 58.0123 38.3628C58.4345 39.3793 60.4255 40.1446 60.4255 41.313C60.4255 42.4815 58.4345 43.2476 58.0123 44.2633C57.5742 45.3167 58.4227 47.2552 57.6272 48.0528C56.8634 48.815 55.0385 48.0662 53.96 48.3914C54.005 48.4047 54.0485 48.4197 54.0912 48.437C55.1096 48.8583 55.8774 50.8448 57.0492 50.8448C58.221 50.8448 58.988 48.8591 60.0072 48.437C61.0636 48.0001 63.0119 48.8465 63.8026 48.0528C64.5933 47.2591 63.7496 45.3167 64.1876 44.2633C64.6099 43.2468 66.6008 42.4815 66.6008 41.313C66.6008 40.1446 64.6107 39.3793 64.1876 38.3628Z" fill="#FF5CCF"/>
<path d="M57.0457 44.6665C58.9047 44.6665 60.4117 43.1658 60.4117 41.3147C60.4117 39.4635 58.9047 37.9629 57.0457 37.9629C55.1867 37.9629 53.6797 39.4635 53.6797 41.3147C53.6797 43.1658 55.1867 44.6665 57.0457 44.6665Z" fill="#FFABE7"/>
<path d="M76.3672 0.000976562H2.7026C1.98609 0.00181008 1.29915 0.285612 0.792499 0.790128C0.285844 1.29464 0.000837055 1.97867 0 2.69217L0 12.1641C0.0110795 12.4626 0.137971 12.7453 0.353997 12.9526C0.570023 13.1599 0.858355 13.2757 1.15837 13.2757C1.45839 13.2757 1.74672 13.1599 1.96275 12.9526C2.17877 12.7453 2.30566 12.4626 2.31674 12.1641V2.69217C2.31695 2.59033 2.35767 2.49272 2.42999 2.4207C2.50231 2.34869 2.60033 2.30815 2.7026 2.30794H76.3672C76.4694 2.30815 76.5675 2.34869 76.6398 2.4207C76.7121 2.49272 76.7528 2.59033 76.753 2.69217V58.9355C76.7528 59.0374 76.7121 59.135 76.6398 59.207C76.5675 59.279 76.4694 59.3196 76.3672 59.3198H61.5242V56.9199H73.1735C73.4807 56.9199 73.7754 56.7984 73.9926 56.5821C74.2099 56.3657 74.3319 56.0724 74.3319 55.7664V43.6891C74.3208 43.3906 74.1939 43.1079 73.9779 42.9006C73.7619 42.6933 73.4735 42.5775 73.1735 42.5775C72.8735 42.5775 72.5852 42.6933 72.3692 42.9006C72.1531 43.1079 72.0262 43.3906 72.0152 43.6891V54.6153H61.5242V49.4975L61.6357 49.5069C62.5972 49.5912 63.7935 49.6959 64.6213 48.8692C65.4492 48.0424 65.344 46.8512 65.2602 45.8937C65.1584 45.5237 65.1815 45.1305 65.3261 44.7748C65.4707 44.4191 65.7287 44.1207 66.0604 43.9253C68.1036 42.2341 68.1415 40.4224 66.0604 38.6996C65.7289 38.5041 65.4711 38.2056 65.3265 37.85C65.1819 37.4944 65.1586 37.1013 65.2602 36.7312C65.4872 34.1511 64.2766 32.8866 61.6357 33.1181C61.2652 33.219 60.8717 33.1955 60.5159 33.0513C60.1602 32.9072 59.862 32.6503 59.6676 32.3205C57.9716 30.2812 56.1514 30.2434 54.4237 32.3205C54.2297 32.6506 53.9318 32.9078 53.5762 33.0524C53.2206 33.197 52.8271 33.2209 52.4565 33.1204C49.8638 32.8937 48.6002 34.1054 48.8319 36.7336C48.9335 37.1037 48.9102 37.4968 48.7656 37.8524C48.6211 38.208 48.3632 38.5065 48.0317 38.702C45.9886 40.3932 45.9506 42.205 48.0317 43.9277C48.3632 44.1232 48.6211 44.4217 48.7656 44.7773C48.9102 45.133 48.9335 45.526 48.8319 45.8961C48.5884 48.6597 49.9144 49.7282 52.568 49.4998V54.6177H7.0546V7.01398H72.016V37.5383C72.027 37.8368 72.1539 38.1195 72.3699 38.3268C72.586 38.5341 72.8743 38.6499 73.1743 38.6499C73.4743 38.6499 73.7627 38.5341 73.9787 38.3268C74.1947 38.1195 74.3216 37.8368 74.3327 37.5383V5.8605C74.3327 5.70902 74.3027 5.55903 74.2445 5.41908C74.1863 5.27913 74.101 5.15197 73.9934 5.04486C73.8858 4.93775 73.7582 4.85279 73.6176 4.79482C73.4771 4.73685 73.3264 4.70702 73.1743 4.70702H5.89623C5.74411 4.70702 5.59348 4.73685 5.45294 4.79482C5.3124 4.85279 5.1847 4.93775 5.07714 5.04486C4.96957 5.15197 4.88425 5.27913 4.82604 5.41908C4.76782 5.55903 4.73786 5.70902 4.73786 5.8605V55.7664C4.73786 56.0724 4.8599 56.3657 5.07714 56.5821C5.29438 56.7984 5.58901 56.9199 5.89623 56.9199H52.5672V59.3198H2.7026C2.60033 59.3196 2.50231 59.279 2.42999 59.207C2.35767 59.135 2.31695 59.0374 2.31674 58.9355V18.0079C2.30566 17.7093 2.17877 17.4267 1.96275 17.2194C1.74672 17.0121 1.45839 16.8962 1.15837 16.8962C0.858355 16.8962 0.570023 17.0121 0.353997 17.2194C0.137971 17.4267 0.0110795 17.7093 0 18.0079L0 58.9355C0.000837055 59.649 0.285844 60.3331 0.792499 60.8376C1.29915 61.3421 1.98609 61.6259 2.7026 61.6267H52.5672V66.8477C52.5672 67.0416 52.6163 67.2323 52.7099 67.4022C52.8035 67.5722 52.9387 67.7159 53.1028 67.8201C53.267 67.9243 53.4548 67.9857 53.6491 67.9985C53.8433 68.0113 54.0377 67.9751 54.2142 67.8933L57.0457 66.5816L59.8772 67.8933C60.0541 67.969 60.2469 68.0005 60.4389 67.985C60.6308 67.9695 60.8161 67.9075 60.9785 67.8044C61.1408 67.7013 61.2755 67.5602 61.3706 67.3935C61.4657 67.2268 61.5184 67.0394 61.5242 66.8477V61.6267H76.3672C77.0837 61.6259 77.7706 61.3421 78.2773 60.8376C78.7839 60.3331 79.0689 59.649 79.0698 58.9355V2.69217C79.0689 1.97867 78.7839 1.29464 78.2773 0.790128C77.7706 0.285612 77.0837 0.00181008 76.3672 0.000976562ZM52.2509 47.2078C51.0917 47.3094 51.0356 47.248 51.1368 46.0937C51.2687 45.3507 51.1858 44.5856 50.8977 43.8878C50.6096 43.1899 50.1281 42.588 49.5095 42.1522C48.5694 41.3743 48.5702 41.2523 49.5095 40.4743C50.1282 40.0386 50.6097 39.4367 50.8978 38.7388C51.1859 38.041 51.2688 37.2759 51.1368 36.5328C51.0356 35.3786 51.0917 35.3172 52.2509 35.4187C52.9968 35.5502 53.7648 35.4672 54.465 35.1795C55.1653 34.8918 55.7686 34.4114 56.2044 33.7944C56.9832 32.859 57.1018 32.859 57.8807 33.7944C58.3165 34.4112 58.9199 34.8916 59.6201 35.1793C60.3203 35.4669 61.0883 35.55 61.8341 35.4187C62.9941 35.3172 63.0494 35.3786 62.9482 36.5328C62.8162 37.2759 62.8991 38.041 63.1872 38.7388C63.4753 39.4367 63.9568 40.0386 64.5755 40.4743C65.5148 41.2523 65.5156 41.3743 64.5755 42.1522C63.9568 42.5879 63.4753 43.1898 63.1872 43.8877C62.8991 44.5856 62.8162 45.3507 62.9482 46.0937C63.0502 47.248 62.9933 47.3094 61.8341 47.2078C61.072 47.0807 60.2903 47.1371 59.5546 47.3724C58.8849 47.7157 58.3097 48.2169 57.8791 48.8322C57.6412 49.1544 57.3591 49.4417 57.0409 49.6857C56.7228 49.4417 56.4406 49.1543 56.2028 48.8322C55.7735 48.2172 55.2 47.7158 54.532 47.3716C53.7949 47.1449 53.0155 47.0886 52.2533 47.2071L52.2509 47.2078ZM57.532 64.2644C57.3789 64.1935 57.2121 64.1567 57.0433 64.1567C56.8745 64.1567 56.7077 64.1935 56.5546 64.2644L54.8807 65.0399V50.836C55.1165 51.1925 55.4375 51.4852 55.8148 51.6877C56.1922 51.8902 56.6142 51.9962 57.0429 51.9962C57.4716 51.9962 57.8936 51.8902 58.271 51.6877C58.6483 51.4852 58.9693 51.1925 59.2051 50.836V65.0376L57.532 64.2644Z" fill="#060606"/>
<path d="M15.0207 16.6683H54.9509C55.2507 16.6573 55.5345 16.5309 55.7427 16.3158C55.9509 16.1007 56.0672 15.8136 56.0672 15.5148C56.0672 15.2161 55.9509 14.9289 55.7427 14.7138C55.5345 14.4987 55.2507 14.3724 54.9509 14.3613H15.0207C14.7208 14.3724 14.437 14.4987 14.2288 14.7138C14.0206 14.9289 13.9043 15.2161 13.9043 15.5148C13.9043 15.8136 14.0206 16.1007 14.2288 16.3158C14.437 16.5309 14.7208 16.6573 15.0207 16.6683V16.6683Z" fill="#060606"/>
<path d="M65.207 22.5275C65.207 22.2216 65.085 21.9282 64.8677 21.7119C64.6505 21.4956 64.3559 21.374 64.0487 21.374H15.0207C14.7208 21.3851 14.437 21.5114 14.2288 21.7265C14.0206 21.9416 13.9043 22.2288 13.9043 22.5275C13.9043 22.8263 14.0206 23.1134 14.2288 23.3285C14.437 23.5436 14.7208 23.67 15.0207 23.681H64.0494C64.3565 23.6808 64.651 23.5592 64.868 23.3429C65.0851 23.1266 65.207 22.8333 65.207 22.5275Z" fill="#060606"/>
<path d="M44.0306 29.5451C44.0306 29.2392 43.9085 28.9458 43.6913 28.7295C43.474 28.5131 43.1794 28.3916 42.8722 28.3916H15.0207C14.7208 28.4026 14.437 28.529 14.2288 28.7441C14.0206 28.9592 13.9043 29.2463 13.9043 29.5451C13.9043 29.8438 14.0206 30.1309 14.2288 30.3461C14.437 30.5612 14.7208 30.6875 15.0207 30.6986H42.8761C43.1827 30.6975 43.4763 30.5755 43.6927 30.3593C43.9091 30.1431 44.0306 29.8503 44.0306 29.5451V29.5451Z" fill="#060606"/>
<path d="M28.8239 45.6205H26.9263C25.711 45.6205 25.0428 45.2993 24.7914 44.0159C24.5644 42.8451 22.8684 42.9923 22.5577 44.0159C22.4201 44.4686 21.725 45.7638 21.1178 45.6583C20.796 45.6024 20.6552 45.1072 20.5366 44.852C20.3117 44.3498 20.1295 43.8296 19.9918 43.297C19.3822 41.0617 19.2604 38.7304 18.8793 36.4509C18.6579 35.1305 16.6369 35.5061 16.6045 36.7572C16.5432 40.7445 15.8037 44.6926 14.4174 48.4338C13.8877 49.8227 16.1261 50.4234 16.6511 49.0471C17.1977 47.6065 17.6411 46.1291 17.9779 44.6261C18.1589 45.1763 18.3806 45.7124 18.6413 46.2299C18.9135 46.8931 19.4353 47.4239 20.0953 47.7092C20.7552 47.9945 21.501 48.0115 22.1734 47.7566C22.7169 47.5232 23.2008 47.1713 23.5895 46.7268C24.6854 47.9865 26.3158 47.9283 27.8364 47.9259C30.1294 47.9227 32.4224 47.9178 34.7154 47.9109C35.0152 47.8999 35.2991 47.7736 35.5073 47.5584C35.7155 47.3433 35.8318 47.0562 35.8318 46.7575C35.8318 46.4587 35.7155 46.1716 35.5073 45.9565C35.2991 45.7414 35.0152 45.615 34.7154 45.604C32.7497 45.6098 30.7838 45.6142 28.8176 45.6174L28.8239 45.6205Z" fill="#060606"/>
<path d="M57.0451 45.8185C57.9398 45.8185 58.8143 45.5543 59.5582 45.0594C60.3021 44.5644 60.8819 43.8609 61.2243 43.0378C61.5667 42.2147 61.6563 41.309 61.4817 40.4353C61.3072 39.5615 60.8764 38.7589 60.2437 38.1289C59.6111 37.4989 58.8051 37.0699 57.9276 36.8961C57.0501 36.7223 56.1405 36.8115 55.314 37.1524C54.4874 37.4934 53.7809 38.0707 53.2839 38.8115C52.7868 39.5523 52.5215 40.4231 52.5215 41.314C52.5229 42.5083 53 43.6531 53.848 44.4976C54.6961 45.342 55.8458 45.8171 57.0451 45.8185V45.8185ZM57.0451 39.1157C57.4817 39.1157 57.9085 39.2447 58.2716 39.4862C58.6346 39.7278 58.9176 40.0711 59.0847 40.4728C59.2517 40.8745 59.2955 41.3165 59.2103 41.7429C59.1251 42.1694 58.9148 42.561 58.6061 42.8685C58.2974 43.1759 57.904 43.3853 57.4757 43.4701C57.0475 43.5549 56.6036 43.5114 56.2003 43.345C55.7969 43.1786 55.4521 42.8969 55.2095 42.5353C54.9669 42.1738 54.8375 41.7488 54.8375 41.314C54.8391 40.7315 55.0722 40.1734 55.4859 39.7615C55.8995 39.3496 56.4601 39.1174 57.0451 39.1157V39.1157Z" fill="#060606"/>
</svg>
