<svg width="20" height="20" viewBox="0 0 20 20" fill="none" xmlns="http://www.w3.org/2000/svg">
<path d="M10.0011 16.6217L4.20442 10.8401C3.55299 10.1253 3.2111 9.18158 3.25352 8.21539C3.29595 7.24921 3.71923 6.33913 4.43081 5.68417C5.14238 5.02921 6.08436 4.68266 7.05074 4.7203C8.01713 4.75795 8.92929 5.17673 9.58776 5.88506C9.71093 5.96789 9.85599 6.01213 10.0044 6.01213C10.1529 6.01213 10.2979 5.96789 10.4211 5.88506C11.0796 5.17673 11.9917 4.75795 12.9581 4.7203C13.9245 4.68266 14.8665 5.02921 15.578 5.68417C16.2896 6.33913 16.7129 7.24921 16.7553 8.21539C16.7977 9.18158 16.4559 10.1253 15.8044 10.8401L10.0011 16.6217Z" fill="#EE2C2C"/>
</svg>
