<svg width="19" height="19" viewBox="0 0 19 19" fill="none" xmlns="http://www.w3.org/2000/svg">
<g >
<path  d="M14.035 12.7816L10.852 15.9636C10.5707 16.2445 10.1895 16.4023 9.792 16.4023C9.39449 16.4023 9.01325 16.2445 8.73199 15.9636L5.54899 12.7816C4.70998 11.9424 4.13864 10.8733 3.90721 9.70948C3.67578 8.54562 3.79466 7.33927 4.24881 6.24297C4.70297 5.14667 5.47201 4.20966 6.45868 3.55042C7.44535 2.89117 8.60535 2.53931 9.792 2.53931C10.9786 2.53931 12.1386 2.89117 13.1253 3.55042C14.112 4.20966 14.881 5.14667 15.3352 6.24297C15.7893 7.33927 15.9082 8.54562 15.6768 9.70948C15.4454 10.8733 14.874 11.9424 14.035 12.7816Z" fill="white" stroke="white" stroke-width="0.978913" stroke-linecap="round" stroke-linejoin="round"/>
<path  d="M9.79199 10.2886C10.8966 10.2886 11.792 9.39314 11.792 8.28857C11.792 7.184 10.8966 6.28857 9.79199 6.28857C8.68742 6.28857 7.79199 7.184 7.79199 8.28857C7.79199 9.39314 8.68742 10.2886 9.79199 10.2886Z" fill="#6A6A6A"/>
</g>
</svg>
