<svg width="80" height="80" viewBox="0 0 80 80" fill="none" xmlns="http://www.w3.org/2000/svg">
<path d="M55.3714 78.4364H7.82113C6.99991 78.4369 6.18665 78.2755 5.42778 77.9616C4.66892 77.6478 3.9793 77.1875 3.39832 76.6071C2.81733 76.0267 2.35635 75.3375 2.04169 74.579C1.72704 73.8204 1.56487 73.0073 1.56445 72.186V7.81405C1.56551 6.15563 2.22527 4.56555 3.3986 3.39354C4.57193 2.22154 6.16274 1.5636 7.82113 1.56445H55.3714C57.0298 1.5636 58.6206 2.22154 59.7939 3.39354C60.9672 4.56555 61.627 6.15563 61.628 7.81405V72.186C61.6276 73.0073 61.4655 73.8204 61.1508 74.579C60.8361 75.3375 60.3752 76.0267 59.7942 76.6071C59.2132 77.1875 58.5236 77.6478 57.7647 77.9616C57.0058 78.2755 56.1926 78.4369 55.3714 78.4364V78.4364Z" fill="#E1E3E9"/>
<path d="M8.44629 71.5527H54.7454V8.44629H8.44629V71.5527Z" fill="white"/>
<path d="M41.5769 15.3293H21.5557C20.7266 15.3293 19.9315 15.0001 19.345 14.4142C18.7585 13.8283 18.4286 13.0335 18.4277 12.2045V1.56445H44.7056V12.2045C44.7048 13.0336 44.3747 13.8286 43.788 14.4145C43.2014 15.0004 42.406 15.3295 41.5769 15.3293Z" fill="#91DEF5"/>
<path d="M15.9258 24.0596H47.2052V32.8188H15.9258V24.0596Z" fill="#F5737F"/>
<path d="M73.7425 78.4354L69.0498 66.377H78.4344L73.7425 78.4354Z" fill="#98A1B3"/>
<path d="M69.0498 7.82129H78.4344V66.4613H69.0498V7.82129Z" fill="#FFCB7C"/>
<path d="M55.2957 0H7.81024C5.7392 0.00254163 3.75375 0.826566 2.28953 2.29127C0.825303 3.75597 0.00190528 5.74172 0 7.8128L0 72.1872C0.00190528 74.2583 0.825303 76.244 2.28953 77.7087C3.75375 79.1734 5.7392 79.9975 7.81024 80H55.2957C57.3667 79.9975 59.3522 79.1734 60.8164 77.7087C62.2806 76.244 63.104 74.2583 63.1059 72.1872V47.344C63.1106 47.1359 63.0737 46.929 62.9973 46.7353C62.921 46.5417 62.8067 46.3653 62.6612 46.2164C62.5156 46.0676 62.3419 45.9493 62.15 45.8686C61.9582 45.7878 61.7521 45.7463 61.544 45.7463C61.3358 45.7463 61.1298 45.7878 60.9379 45.8686C60.7461 45.9493 60.5723 46.0676 60.4268 46.2164C60.2813 46.3653 60.167 46.5417 60.0906 46.7353C60.0142 46.929 59.9773 47.1359 59.982 47.344V72.1872C59.9807 73.4298 59.4866 74.6211 58.6081 75.4999C57.7295 76.3786 56.5383 76.8729 55.2957 76.8744H7.81024C6.56767 76.8729 5.37643 76.3786 4.49788 75.4999C3.61932 74.6211 3.12521 73.4298 3.12394 72.1872V7.8128C3.125 6.57007 3.61902 5.37851 4.4976 4.49962C5.37617 3.62072 6.56754 3.12628 7.81024 3.1248H16.8701V6.8752H8.43503C8.02066 6.8752 7.62327 7.03981 7.33027 7.33282C7.03727 7.62582 6.87266 8.02323 6.87266 8.4376V71.5624C6.87266 71.7676 6.91307 71.9707 6.99159 72.1603C7.07011 72.3499 7.18519 72.5221 7.33027 72.6672C7.47535 72.8123 7.64758 72.9274 7.83714 73.0059C8.02669 73.0844 8.22986 73.1248 8.43503 73.1248H54.6741C54.8793 73.1248 55.0824 73.0844 55.272 73.0059C55.4615 72.9274 55.6338 72.8123 55.7789 72.6672C55.9239 72.5221 56.039 72.3499 56.1175 72.1603C56.1961 71.9707 56.2365 71.7676 56.2365 71.5624V8.4376C56.2365 8.23215 56.196 8.02872 56.1172 7.83896C56.0385 7.64919 55.9231 7.47681 55.7777 7.33168C55.6323 7.18656 55.4597 7.07154 55.2698 6.99321C55.0799 6.91488 54.8763 6.87478 54.6709 6.8752H46.2391V3.1248H55.2957C56.5383 3.12628 57.7295 3.62061 58.6081 4.49933C59.4866 5.37806 59.9807 6.56941 59.982 7.812V33.28C59.9773 33.4881 60.0142 33.695 60.0906 33.8887C60.167 34.0823 60.2813 34.2587 60.4268 34.4076C60.5723 34.5564 60.7461 34.6747 60.9379 34.7554C61.1298 34.8362 61.3358 34.8778 61.544 34.8778C61.7521 34.8778 61.9582 34.8362 62.15 34.7554C62.3419 34.6747 62.5156 34.5564 62.6612 34.4076C62.8067 34.2587 62.921 34.0823 62.9973 33.8887C63.0737 33.695 63.1106 33.4881 63.1059 33.28V7.8128C63.104 5.74172 62.2806 3.75597 60.8164 2.29127C59.3522 0.826566 57.3667 0.00254163 55.2957 0V0ZM53.1085 10V70H9.9998V10H16.8725V12.1872C16.8737 13.4298 17.3678 14.6211 18.2464 15.4999C19.125 16.3786 20.3162 16.8729 21.5588 16.8744H41.5496C42.7927 16.8738 43.9848 16.3798 44.864 15.501C45.7432 14.6222 46.2378 13.4303 46.2391 12.1872V10H53.1085ZM43.1087 12.1872C43.1083 12.6014 42.9436 12.9986 42.6507 13.2915C42.3578 13.5844 41.9606 13.7492 41.5464 13.7496H21.5556C21.1413 13.7492 20.7442 13.5844 20.4513 13.2915C20.1584 12.9986 19.9936 12.6014 19.9932 12.1872V3.1248H43.1127L43.1087 12.1872Z" fill="black"/>
<path d="M47.2105 38.748H15.9312C15.5164 38.748 15.1186 38.9128 14.8253 39.2061C14.532 39.4994 14.3672 39.8972 14.3672 40.312C14.3672 40.7268 14.532 41.1246 14.8253 41.418C15.1186 41.7113 15.5164 41.876 15.9312 41.876H47.2105C47.6253 41.876 48.0231 41.7113 48.3164 41.418C48.6097 41.1246 48.7745 40.7268 48.7745 40.312C48.7745 39.8972 48.6097 39.4994 48.3164 39.2061C48.0231 38.9128 47.6253 38.748 47.2105 38.748Z" fill="black"/>
<path d="M47.1936 46.248H33.4106C32.9959 46.248 32.5981 46.4128 32.3048 46.7061C32.0115 46.9994 31.8467 47.3972 31.8467 47.812C31.8467 48.2268 32.0115 48.6247 32.3048 48.918C32.5981 49.2113 32.9959 49.376 33.4106 49.376H47.1936C47.6084 49.376 48.0062 49.2113 48.2995 48.918C48.5928 48.6247 48.7575 48.2268 48.7575 47.812C48.7575 47.3972 48.5928 46.9994 48.2995 46.7061C48.0062 46.4128 47.6084 46.248 47.1936 46.248V46.248Z" fill="black"/>
<path d="M24.6775 46.248H15.936C15.5213 46.248 15.1234 46.4128 14.8301 46.7061C14.5368 46.9994 14.3721 47.3972 14.3721 47.812C14.3721 48.2268 14.5368 48.6247 14.8301 48.918C15.1234 49.2113 15.5213 49.376 15.936 49.376H24.6767C25.0915 49.376 25.4893 49.2113 25.7826 48.918C26.0759 48.6247 26.2406 48.2268 26.2406 47.812C26.2406 47.3972 26.0759 46.9994 25.7826 46.7061C25.4893 46.4128 25.0915 46.248 24.6767 46.248H24.6775Z" fill="black"/>
<path d="M14.5898 55.312C14.5898 55.7268 14.7546 56.1247 15.0479 56.418C15.3412 56.7113 15.739 56.876 16.1538 56.876H34.7134C35.1282 56.876 35.526 56.7113 35.8193 56.418C36.1126 56.1247 36.2774 55.7268 36.2774 55.312C36.2774 54.8972 36.1126 54.4994 35.8193 54.2061C35.526 53.9128 35.1282 53.748 34.7134 53.748H16.1538C15.739 53.748 15.3412 53.9128 15.0479 54.2061C14.7546 54.4994 14.5898 54.8972 14.5898 55.312Z" fill="black"/>
<path d="M47.1925 53.748H43.4478C43.033 53.748 42.6352 53.9128 42.3419 54.2061C42.0486 54.4994 41.8838 54.8972 41.8838 55.312C41.8838 55.7268 42.0486 56.1247 42.3419 56.418C42.6352 56.7113 43.033 56.876 43.4478 56.876H47.1925C47.6073 56.876 48.0051 56.7113 48.2984 56.418C48.5917 56.1247 48.7565 55.7268 48.7565 55.312C48.7565 54.8972 48.5917 54.4994 48.2984 54.2061C48.0051 53.9128 47.6073 53.748 47.1925 53.748V53.748Z" fill="black"/>
<path d="M47.1936 61.2471H33.4106C32.9959 61.2471 32.5981 61.4118 32.3048 61.7052C32.0115 61.9985 31.8467 62.3963 31.8467 62.8111C31.8467 63.2259 32.0115 63.6237 32.3048 63.917C32.5981 64.2103 32.9959 64.3751 33.4106 64.3751H47.1936C47.6084 64.3751 48.0062 64.2103 48.2995 63.917C48.5928 63.6237 48.7575 63.2259 48.7575 62.8111C48.7575 62.3963 48.5928 61.9985 48.2995 61.7052C48.0062 61.4118 47.6084 61.2471 47.1936 61.2471V61.2471Z" fill="black"/>
<path d="M24.6774 61.2471H16.1567C15.7419 61.2471 15.3441 61.4118 15.0508 61.7052C14.7575 61.9985 14.5928 62.3963 14.5928 62.8111C14.5928 63.2259 14.7575 63.6237 15.0508 63.917C15.3441 64.2103 15.7419 64.3751 16.1567 64.3751H24.6774C25.0922 64.3751 25.49 64.2103 25.7833 63.917C26.0766 63.6237 26.2413 63.2259 26.2413 62.8111C26.2413 62.3963 26.0766 61.9985 25.7833 61.7052C25.49 61.4118 25.0922 61.2471 24.6774 61.2471V61.2471Z" fill="black"/>
<path d="M14.3633 24.0601V32.8161C14.3633 33.2309 14.5281 33.6287 14.8214 33.922C15.1147 34.2153 15.5125 34.3801 15.9273 34.3801H47.2066C47.6214 34.3801 48.0192 34.2153 48.3125 33.922C48.6058 33.6287 48.7706 33.2309 48.7706 32.8161V24.0601C48.7706 23.646 48.6064 23.2488 48.3139 22.9556C48.0215 22.6624 47.6247 22.4972 47.2106 22.4961H15.9312C15.7255 22.4956 15.5217 22.5356 15.3315 22.614C15.1413 22.6924 14.9684 22.8075 14.8228 22.9528C14.6771 23.098 14.5616 23.2706 14.4827 23.4607C14.4039 23.6507 14.3633 23.8544 14.3633 24.0601V24.0601ZM17.4912 25.6241H45.6427V31.2553H17.4912V25.6241Z" fill="black"/>
<path d="M79.9987 7.81924C79.9986 7.61395 79.9581 7.4107 79.8794 7.22108C79.8008 7.03147 79.6855 6.8592 79.5403 6.71412C79.3951 6.56904 79.2227 6.45398 79.033 6.37552C78.8433 6.29706 78.64 6.25673 78.4347 6.25684H69.0493C68.844 6.25673 68.6407 6.29706 68.4511 6.37552C68.2614 6.45398 68.089 6.56904 67.9438 6.71412C67.7985 6.8592 67.6833 7.03147 67.6046 7.22108C67.526 7.4107 67.4855 7.61395 67.4854 7.81924V66.3928C67.4854 66.5867 67.5218 66.7788 67.5926 66.9592L72.2853 79.004C72.3998 79.2974 72.6002 79.5493 72.8603 79.727C73.1203 79.9046 73.4279 79.9996 73.7428 79.9996C74.0577 79.9996 74.3653 79.9046 74.6254 79.727C74.8854 79.5493 75.0859 79.2974 75.2004 79.004L79.8931 66.9592C79.9639 66.7788 80.0002 66.5867 80.0003 66.3928V7.81924H79.9987ZM73.742 74.1296L71.3365 67.9552H76.1476L73.742 74.1296ZM76.87 64.8304H70.6133V9.38163H76.87V64.8304Z" fill="black"/>
<path d="M61.5608 38.748C61.1988 38.7478 60.8479 38.8732 60.5679 39.1027C60.2879 39.3322 60.0961 39.6518 60.0253 40.0068C59.9545 40.3619 60.0091 40.7305 60.1796 41.0499C60.3501 41.3693 60.6261 41.6197 60.9606 41.7583C61.295 41.897 61.6672 41.9154 62.0137 41.8104C62.3602 41.7054 62.6596 41.4835 62.8608 41.1825C63.062 40.8815 63.1526 40.52 63.1172 40.1597C63.0817 39.7994 62.9224 39.4625 62.6664 39.2064C62.3727 38.9139 61.9754 38.7492 61.5608 38.748V38.748Z" fill="black"/>
</svg>
