<svg width="18" height="16" viewBox="0 0 18 16" fill="none" xmlns="http://www.w3.org/2000/svg">
<path opacity="0.7" d="M17.7173 15.3542L12.8435 11.0057C13.7767 9.88981 14.2769 8.5233 14.2656 7.12054C14.2715 6.26862 14.0916 5.4241 13.7364 4.63599C13.3812 3.84787 12.8578 3.13184 12.1965 2.52943C11.5351 1.92701 10.7491 1.45021 9.88385 1.12666C9.01865 0.803123 8.09154 0.639287 7.15629 0.644659C6.22104 0.639287 5.29393 0.803123 4.42873 1.12666C3.56353 1.45021 2.77746 1.92701 2.11613 2.52943C1.45479 3.13184 0.93135 3.84787 0.576165 4.63599C0.220979 5.4241 0.041118 6.26862 0.0470155 7.12054C0.041118 7.97247 0.220979 8.81698 0.576165 9.6051C0.93135 10.3932 1.45479 11.1092 2.11613 11.7117C2.77746 12.3141 3.56353 12.7909 4.42873 13.1144C5.29393 13.438 6.22104 13.6018 7.15629 13.5964C8.69625 13.6068 10.1964 13.1511 11.4215 12.3011L14.7732 15.3542H17.7173ZM2.07867 7.12054C2.0722 6.51151 2.19911 5.90741 2.452 5.34359C2.70488 4.77977 3.07865 4.26754 3.55145 3.83687C4.02424 3.40619 4.58657 3.06572 5.20554 2.83537C5.82451 2.60502 6.48769 2.48941 7.15629 2.49531C7.82489 2.48941 8.48808 2.60502 9.10704 2.83537C9.72601 3.06572 10.2883 3.40619 10.7611 3.83687C11.2339 4.26754 11.6077 4.77977 11.8606 5.34359C12.1135 5.90741 12.2404 6.51151 12.2339 7.12054C12.2404 7.72958 12.1135 8.33367 11.8606 8.89749C11.6077 9.46132 11.2339 9.97355 10.7611 10.4042C10.2883 10.8349 9.72601 11.1754 9.10704 11.4057C8.48808 11.6361 7.82489 11.7517 7.15629 11.7458C6.48769 11.7517 5.82451 11.6361 5.20554 11.4057C4.58657 11.1754 4.02424 10.8349 3.55145 10.4042C3.07865 9.97355 2.70488 9.46132 2.452 8.89749C2.19911 8.33367 2.0722 7.72958 2.07867 7.12054Z"
fill="#101317"/>
</svg>