<svg width="208" height="218" viewBox="0 0 208 218" fill="none" xmlns="http://www.w3.org/2000/svg">
<path d="M196.971 0H122.42C117.651 0 113.785 3.7776 113.785 8.4375V58.9284C113.785 63.5883 117.651 67.3659 122.42 67.3659H196.971C201.74 67.3659 205.606 63.5883 205.606 58.9284V8.4375C205.606 3.7776 201.74 0 196.971 0Z" fill="#F2F6FB"/>
<path d="M127.591 62.1246C125.38 62.1027 123.266 61.2288 121.71 59.6929C120.154 58.1569 119.281 56.083 119.281 53.9217C119.281 51.7604 120.154 49.6865 121.71 48.1505C123.266 46.6146 125.38 45.7407 127.591 45.7188C129.803 45.7407 131.917 46.6146 133.473 48.1505C135.029 49.6865 135.902 51.7604 135.902 53.9217C135.902 56.083 135.029 58.1569 133.473 59.6929C131.917 61.2288 129.803 62.1027 127.591 62.1246ZM127.61 53.8871C127.828 53.8865 128.042 53.8225 128.224 53.7032C128.406 53.5839 128.547 53.4146 128.631 53.2168C128.714 53.0189 128.735 52.8014 128.692 52.5916C128.649 52.3819 128.543 52.1893 128.388 52.0383C128.233 51.8873 128.035 51.7847 127.821 51.7433C127.606 51.7019 127.383 51.7237 127.181 51.8059C126.979 51.8881 126.806 52.027 126.685 52.205C126.563 52.3831 126.499 52.5923 126.499 52.8063C126.5 53.0934 126.617 53.3686 126.825 53.5713C127.034 53.774 127.316 53.8875 127.61 53.8871ZM127.61 54.4279C127.346 54.4276 127.084 54.478 126.84 54.5763C126.596 54.6746 126.374 54.819 126.188 55.001C126.001 55.1831 125.852 55.3994 125.751 55.6375C125.649 55.8756 125.597 56.1309 125.597 56.3888H129.622C129.621 55.8681 129.408 55.3691 129.031 55.0015C128.654 54.6338 128.142 54.4277 127.61 54.4284V54.4279Z" fill="#D8DEED"/>
<path d="M119.28 14.7483C119.28 14.631 119.304 14.5147 119.35 14.4062C119.395 14.2978 119.463 14.1992 119.548 14.1161C119.633 14.0331 119.733 13.9673 119.844 13.9223C119.955 13.8774 120.074 13.8543 120.194 13.8544H178.463C178.705 13.8546 178.938 13.9489 179.109 14.1165C179.28 14.2841 179.377 14.5114 179.377 14.7483V39.1542C179.377 39.2716 179.353 39.3879 179.307 39.4963C179.261 39.6048 179.194 39.7034 179.109 39.7864C179.024 39.8695 178.924 39.9353 178.813 39.9802C178.702 40.0252 178.583 40.0483 178.463 40.0482H120.194C119.952 40.048 119.719 39.9537 119.548 39.7861C119.377 39.6184 119.28 39.3912 119.28 39.1542V14.7483ZM141.863 52.3935H187.729C188.17 52.3935 188.594 52.565 188.906 52.8702C189.219 53.1755 189.394 53.5895 189.394 54.0211C189.394 54.4528 189.219 54.8668 188.906 55.172C188.594 55.4772 188.17 55.6487 187.729 55.6487H141.863C141.421 55.6487 140.997 55.4772 140.685 55.172C140.373 54.8668 140.197 54.4528 140.197 54.0211C140.197 53.5895 140.373 53.1755 140.685 52.8702C140.997 52.565 141.421 52.3935 141.863 52.3935ZM141.863 57.683H196.067C196.509 57.683 196.932 57.8545 197.245 58.1597C197.557 58.4649 197.733 58.8789 197.733 59.3106C197.733 59.7423 197.557 60.1562 197.245 60.4615C196.932 60.7667 196.509 60.9382 196.067 60.9382H141.863C141.421 60.9382 140.997 60.7667 140.685 60.4615C140.373 60.1562 140.197 59.7423 140.197 59.3106C140.197 58.8789 140.373 58.4649 140.685 58.1597C140.997 57.8545 141.421 57.683 141.863 57.683ZM141.863 47.1041H176.057C176.499 47.1041 176.922 47.2755 177.235 47.5808C177.547 47.886 177.723 48.3 177.723 48.7317C177.723 49.1633 177.547 49.5773 177.235 49.8825C176.922 50.1878 176.499 50.3592 176.057 50.3592H141.863C141.644 50.3592 141.427 50.3171 141.225 50.2354C141.023 50.1536 140.84 50.0337 140.685 49.8825C140.53 49.7314 140.408 49.552 140.324 49.3545C140.24 49.157 140.197 48.9454 140.197 48.7317C140.197 48.5179 140.24 48.3063 140.324 48.1088C140.408 47.9113 140.53 47.7319 140.685 47.5808C140.84 47.4296 141.023 47.3097 141.225 47.228C141.427 47.1462 141.644 47.1041 141.863 47.1041ZM113.785 3.80996C113.785 2.79968 114.196 1.83073 114.927 1.11623C115.658 0.401741 116.649 0.000223754 117.683 0L201.886 0C202.397 5.53931e-05 202.904 0.0986498 203.377 0.290153C203.85 0.481656 204.28 0.762318 204.642 1.11611C205.004 1.4699 205.291 1.8899 205.487 2.35211C205.683 2.81432 205.783 3.3097 205.783 3.80996V7.61991H113.785V3.80996Z" fill="#E1E5F0"/>
<path d="M186.481 34.3193H197.31C198.088 34.3193 198.834 34.6212 199.383 35.1585C199.933 35.6957 200.242 36.4245 200.242 37.1843C200.242 37.9441 199.933 38.6728 199.383 39.2101C198.834 39.7474 198.088 40.0492 197.31 40.0492H186.481C185.703 40.0492 184.957 39.7474 184.408 39.2101C183.858 38.6728 183.549 37.9441 183.549 37.1843C183.549 36.4245 183.858 35.6957 184.408 35.1585C184.957 34.6212 185.703 34.3193 186.481 34.3193V34.3193Z" fill="#A339FF"/>
<path d="M119.014 5.54161C119.944 5.54161 120.698 4.80498 120.698 3.8963C120.698 2.98761 119.944 2.25098 119.014 2.25098C118.084 2.25098 117.33 2.98761 117.33 3.8963C117.33 4.80498 118.084 5.54161 119.014 5.54161Z" fill="#FF5645"/>
<path d="M124.51 5.54161C125.44 5.54161 126.194 4.80498 126.194 3.8963C126.194 2.98761 125.44 2.25098 124.51 2.25098C123.58 2.25098 122.826 2.98761 122.826 3.8963C122.826 4.80498 123.58 5.54161 124.51 5.54161Z" fill="#FFCB3D"/>
<path d="M130.184 5.54161C131.114 5.54161 131.868 4.80498 131.868 3.8963C131.868 2.98761 131.114 2.25098 130.184 2.25098C129.254 2.25098 128.5 2.98761 128.5 3.8963C128.5 4.80498 129.254 5.54161 130.184 5.54161Z" fill="#3ABF7C"/>
<path d="M194.131 160.268V100.219C194.131 99.6832 184.658 99.2373 173.267 99.2373H170.892C159.524 99.2373 150.027 99.6832 150.027 100.219V160.313C150.027 160.848 159.501 161.294 170.892 161.294H173.267C184.635 161.316 194.131 160.848 194.131 160.268Z" fill="#474961"/>
<path d="M126.767 215.431L126.858 215.476C127.077 215.6 127.337 215.637 127.584 215.579C127.83 215.52 128.044 215.372 128.182 215.164L154.914 167.182C154.971 167.073 155.005 166.953 155.015 166.831C155.024 166.708 155.008 166.585 154.967 166.469C154.927 166.352 154.864 166.245 154.78 166.153C154.697 166.061 154.596 165.986 154.482 165.933L154.391 165.888C154.171 165.764 153.912 165.728 153.665 165.786C153.419 165.844 153.204 165.992 153.067 166.2L146.445 178.068C142.13 185.83 137.808 193.586 133.478 201.333L126.333 214.138C126.22 214.366 126.201 214.629 126.282 214.87C126.363 215.112 126.537 215.313 126.767 215.431Z" fill="#474961"/>
<path d="M193.15 165.109H130.51C130.242 165.11 129.985 165.213 129.793 165.396C129.601 165.58 129.49 165.828 129.482 166.09V166.201C129.486 166.465 129.596 166.715 129.789 166.899C129.981 167.083 130.24 167.185 130.51 167.183H193.196C193.464 167.182 193.721 167.079 193.913 166.895C194.105 166.712 194.216 166.463 194.223 166.201V166.09C194.213 165.821 194.094 165.568 193.893 165.384C193.693 165.2 193.426 165.101 193.15 165.109Z" fill="#474961"/>
<path d="M201.301 214.138L194.156 201.334C189.841 193.572 185.519 185.817 181.189 178.069L174.569 166.202C174.435 165.99 174.22 165.838 173.972 165.779C173.724 165.721 173.463 165.76 173.244 165.89L173.153 165.934C173.041 165.988 172.94 166.063 172.857 166.156C172.774 166.248 172.711 166.355 172.671 166.471C172.631 166.587 172.615 166.71 172.623 166.832C172.632 166.955 172.665 167.074 172.722 167.184L199.453 215.165C199.587 215.377 199.802 215.529 200.05 215.587C200.298 215.646 200.559 215.606 200.778 215.477L200.869 215.432C201.099 215.313 201.272 215.112 201.353 214.87C201.433 214.629 201.415 214.367 201.301 214.138Z" fill="#474961"/>
<path d="M87.1206 158.747C88.7612 159.544 89.3225 160.332 89.4088 161.022C89.5384 162.183 89.2595 163.115 88.5976 164.65C87.3158 167.702 86.232 170.83 85.3526 174.016C85.0964 173.962 84.8407 173.905 84.5854 173.847C84.9034 174.994 85.0774 176.175 85.1035 177.364H49.7246C50.3247 177.364 54.662 165.889 69.967 164.721C70.4068 164.687 70.8338 164.665 71.2479 164.656C71.3705 164.218 71.5545 163.8 71.7945 163.412C71.1525 161.875 70.6599 158.275 70.492 156.776C70.496 156.712 70.5106 156.65 70.5351 156.591C70.5861 156.507 70.6669 156.443 70.7624 156.413C70.8578 156.383 70.9612 156.388 71.0532 156.427L75.8983 158.747C76.7255 158.452 77.6006 158.183 78.5241 157.914C79.3984 157.652 80.2727 157.43 81.0947 157.226L82.8273 152.822C82.843 152.78 82.8672 152.741 82.8985 152.709C82.9298 152.676 82.9675 152.65 83.0094 152.633C83.0513 152.615 83.0965 152.606 83.1421 152.605C83.1878 152.605 83.233 152.614 83.275 152.632C83.3386 152.655 83.3915 152.7 83.4244 152.758C84.3207 153.994 86.5274 157.151 87.1206 158.747Z" fill="#FFCB3D"/>
<path d="M48.8045 175.949C48.624 174.833 49.1058 174.153 50.2499 173.911C54.9689 173.655 59.1678 173.998 62.8465 174.938C66.5253 175.877 68.6681 176.698 69.2752 177.398H50.2495C50.0568 177.397 49.8662 177.359 49.6888 177.285C49.5114 177.212 49.3508 177.104 49.2163 176.969C49.0818 176.834 48.9761 176.675 48.9054 176.499C48.8347 176.324 48.8004 176.137 48.8045 175.949ZM86.2829 168.397C86.8329 167.774 88.5279 165.095 88.5279 165.095C88.5279 165.095 86.6658 170.62 85.5442 174.046C85.6076 173.755 84.7191 176.082 84.6133 175.481V175.459C84.5467 175.128 84.3691 174.828 84.1085 174.607C83.8479 174.385 83.5192 174.255 83.1743 174.236C82.4973 174.194 81.7778 174.174 81.0156 174.174C80.0322 174.174 79.0497 174.236 78.0746 174.36L76.6567 170.145C78.0393 170.812 79.5844 171.091 81.1196 170.95C81.6433 170.905 82.1608 170.808 82.664 170.659C84.0625 170.249 85.3158 169.465 86.2824 168.396L86.2829 168.397ZM81.1913 163.298C81.3308 163.468 81.5252 163.587 81.7426 163.634C81.9601 163.682 82.1876 163.656 82.3879 163.561C82.5883 163.465 82.7494 163.306 82.8449 163.109C82.9404 162.912 82.9646 162.69 82.9135 162.478C82.8971 162.391 82.9167 162.301 82.9682 162.227C83.0197 162.154 83.0988 162.104 83.1881 162.088C83.2774 162.072 83.3697 162.091 83.4445 162.142C83.5193 162.192 83.5706 162.269 83.5871 162.356C83.6533 162.704 83.6063 163.064 83.4526 163.384C83.299 163.704 83.0464 163.97 82.7305 164.143L82.7067 164.154C82.4337 164.279 82.1321 164.332 81.8318 164.307C81.5315 164.283 81.2429 164.182 80.9949 164.015C80.8253 164.395 80.5144 164.698 80.1249 164.863C79.7357 165.015 79.3039 165.027 78.9064 164.898C78.5089 164.768 78.1714 164.504 77.9541 164.154C77.9318 164.116 77.9174 164.074 77.9117 164.03C77.906 163.987 77.9092 163.942 77.921 163.9C77.9329 163.858 77.9531 163.818 77.9806 163.783C78.0082 163.748 78.0424 163.719 78.0815 163.698C78.1205 163.676 78.1635 163.662 78.2082 163.656C78.2528 163.651 78.298 163.654 78.3414 163.665C78.3848 163.677 78.4254 163.697 78.461 163.723C78.4965 163.75 78.5263 163.784 78.5486 163.822C78.6824 164.031 78.887 164.188 79.1269 164.265C79.3668 164.342 79.6268 164.335 79.8615 164.244C80.0333 164.179 80.1795 164.062 80.279 163.91C80.3785 163.758 80.4263 163.58 80.4155 163.4L80.412 163.394C80.3203 163.219 80.2858 163.02 80.3132 162.826C80.3202 162.759 80.3415 162.694 80.3756 162.636C80.4098 162.578 80.456 162.528 80.5113 162.488C80.5607 162.455 80.6165 162.433 80.6752 162.423C80.7338 162.413 80.7941 162.415 80.8519 162.428C80.9098 162.442 80.9641 162.468 81.0112 162.504C81.0584 162.539 81.0974 162.584 81.1257 162.635C81.224 162.843 81.2472 163.077 81.1913 163.298ZM75.4085 163.308C75.649 163.75 75.4288 164.381 75.1879 164.423C75.0074 164.444 74.7868 164.212 74.7065 164.065C74.6136 163.891 74.5784 163.692 74.6059 163.497C74.6133 163.43 74.6349 163.366 74.6695 163.308C74.7041 163.249 74.7508 163.199 74.8067 163.16C74.855 163.127 74.91 163.105 74.968 163.094C75.0259 163.084 75.0854 163.086 75.1425 163.1C75.1996 163.114 75.253 163.14 75.299 163.176C75.345 163.211 75.3827 163.256 75.4094 163.308H75.4085ZM85.6892 159.739C85.912 160.181 85.7095 160.77 85.4664 160.854C85.2843 160.875 85.0615 160.643 84.9803 160.496C84.8867 160.322 84.8514 160.123 84.8793 159.928C84.8867 159.861 84.9086 159.796 84.9435 159.738C84.9784 159.68 85.0255 159.63 85.0818 159.591C85.1306 159.558 85.186 159.535 85.2443 159.525C85.3027 159.515 85.3626 159.517 85.4201 159.531C85.4776 159.545 85.5314 159.57 85.578 159.606C85.6245 159.642 85.6627 159.687 85.6901 159.739H85.6892Z" fill="#DE6903"/>
<path d="M114.367 213.777H150.255C150.385 213.774 150.514 213.797 150.634 213.843C150.755 213.89 150.864 213.959 150.957 214.048C151.049 214.136 151.123 214.242 151.173 214.359C151.223 214.475 151.249 214.601 151.249 214.727C151.249 214.854 151.223 214.979 151.173 215.096C151.123 215.212 151.049 215.318 150.957 215.407C150.864 215.495 150.755 215.565 150.634 215.611C150.514 215.658 150.385 215.681 150.255 215.678H114.367C114.112 215.673 113.87 215.57 113.692 215.393C113.514 215.215 113.414 214.976 113.414 214.727C113.414 214.479 113.514 214.24 113.692 214.062C113.87 213.884 114.112 213.782 114.367 213.777ZM154.622 213.777H177.313C177.443 213.774 177.572 213.797 177.692 213.843C177.812 213.89 177.922 213.959 178.015 214.048C178.107 214.136 178.181 214.242 178.231 214.359C178.281 214.475 178.307 214.601 178.307 214.727C178.307 214.854 178.281 214.979 178.231 215.096C178.181 215.212 178.107 215.318 178.015 215.407C177.922 215.495 177.812 215.565 177.692 215.611C177.572 215.658 177.443 215.681 177.313 215.678H154.622C154.492 215.681 154.363 215.658 154.243 215.611C154.123 215.565 154.013 215.495 153.92 215.407C153.828 215.318 153.754 215.212 153.704 215.096C153.654 214.979 153.628 214.854 153.628 214.727C153.628 214.601 153.654 214.475 153.704 214.359C153.754 214.242 153.828 214.136 153.92 214.048C154.013 213.959 154.123 213.89 154.243 213.843C154.363 213.797 154.492 213.774 154.622 213.777H154.622Z" fill="#FF5645"/>
<path d="M177.061 213.776H154.67L156.465 202.236H172.423L177.061 213.776ZM150.86 213.98C150.688 213.847 150.476 213.775 150.257 213.776H114.368C114.333 213.776 114.298 213.778 114.263 213.781C114.249 213.665 114.244 213.548 114.247 213.431C114.262 213.268 114.287 213.106 114.322 212.946C114.604 211.936 114.946 211.266 115.947 210.67C116.941 210.075 117.972 209.542 119.034 209.074C122.96 207.302 124.301 207.324 126.884 205.699C127.944 205.016 128.938 204.24 129.853 203.381C131.101 202.362 132.427 201.437 133.82 200.616L149.571 200.663L150.86 213.98Z" fill="#474961"/>
<path d="M176.877 164.117C176.841 174.453 176.477 188.186 176.352 192.91C176.33 193.568 176.418 195.348 175.1 196.47C174.665 196.803 174.174 197.058 173.649 197.225C173.099 197.457 170.635 198.153 165.707 198.541C165.386 198.567 165.062 198.573 164.74 198.56C159.658 198.386 158.404 198.076 156.447 197.534C155.818 197.368 155.255 197.021 154.831 196.538C154.408 196.054 154.143 195.457 154.072 194.825C153.456 189.194 151.762 173.848 151.63 172.494C151.454 170.772 151.301 168.818 151.169 166.592L151.099 165.551L145.011 163.206C147.554 172.716 150.019 182.566 152.225 192.357C152.459 193.22 152.365 194.136 151.961 194.937C150.905 196.877 148.155 196.776 141.578 197.536C133.835 198.436 130.602 199.375 128.842 197.456C128.417 197.02 128.121 196.481 127.984 195.895C126.374 188.12 118.411 165.546 115.31 149.35C115.31 149.31 115.288 149.29 115.288 149.25C115.055 148.006 115.088 146.729 115.384 145.498C115.679 144.267 116.231 143.109 117.005 142.096C117.779 141.083 118.759 140.236 119.882 139.61C121.006 138.983 122.25 138.589 123.536 138.453C125.362 138.233 127.012 138.021 128.838 137.801C129.386 137.739 129.938 137.72 130.489 137.744L157.744 137.282C173.909 137.144 171.683 135.311 176.738 137.584C180.108 139.098 182.402 143.411 183.621 150.522C184.058 155.929 181.81 160.461 176.877 164.117Z" fill="#009699"/>
<path opacity="0.177" d="M176.904 164.096C176.906 163.556 176.907 163.026 176.907 162.506C176.907 158.481 176.929 155.017 176.973 152.792C177.016 151.031 177.347 141.356 173.08 139.343C172.593 139.128 172.093 138.94 171.584 138.782C169.123 137.995 166.538 137.641 163.951 137.737C161.377 137.833 157.505 137.99 154.316 140.407C149.917 143.755 150.027 149.038 150.071 149.889L151.123 165.563L145.039 163.22C143.344 156.879 141.615 150.69 139.907 144.769C138.742 140.74 134.842 137.95 130.564 137.744L157.744 137.283C173.909 137.145 171.683 135.312 176.737 137.585C180.107 139.099 182.402 143.412 183.621 150.523C184.056 155.92 181.817 160.444 176.904 164.096Z" fill="#444444"/>
<path d="M153.719 97.8818C153.984 97.7693 154.255 97.6709 154.531 97.5865L159.225 96.0551C159.497 96.0067 159.768 95.9645 160.038 95.9285C160.408 95.5138 161.161 95.162 162.468 94.77C167.109 93.3534 173.032 95.7091 175.141 100.988C176.98 105.586 179.422 110.785 179.195 110.853C178.392 111.364 177.527 111.774 176.62 112.074C178.732 119.862 179.87 125.076 180.034 127.715C180.36 132.971 178.551 136.494 172.42 136.941C166.288 137.387 157.755 138.016 156.752 136.273C156.107 135.152 153.077 128.234 147.662 115.517C145.637 116.157 144.58 116.485 144.49 116.5C144.207 116.548 143.246 113.455 142.621 108.564C141.903 102.953 145.386 98.2703 151.159 97.3139C151.603 97.2271 152.06 97.2329 152.501 97.3307C152.942 97.4286 153.357 97.6164 153.719 97.8818Z" fill="#FF5645"/>
<path opacity="0.177" d="M153.733 97.8917C147.991 100.219 145.141 108.188 147.052 114.082C147.264 114.565 147.472 115.041 147.677 115.508C145.642 116.152 144.58 116.481 144.49 116.496C144.207 116.545 143.246 113.451 142.621 108.561C141.903 102.95 145.386 98.2668 151.159 97.3104C151.606 97.2235 152.066 97.2304 152.51 97.3307C152.954 97.4309 153.371 97.6221 153.733 97.8917Z" fill="#444444"/>
<path d="M144.256 98.5481C144.256 98.5481 143.838 100.154 146.06 99.71C148.281 99.2662 148.92 99.0552 148.92 99.0552L148.347 97.5977L144.256 98.5481Z" fill="#482D1F"/>
<path d="M156.816 97.4179L160.907 116.082L161.879 111.015C167.006 111.997 171.178 112.488 174.396 112.487H174.448C173.723 115.197 172.005 126.955 169.332 131.505C165.953 137.256 163.981 137.887 158.991 137.417C158.502 137.373 158.017 137.284 157.544 137.152C157.765 137.223 157.99 137.281 158.218 137.327L132.405 137.715V137.722L132.323 137.716H132.223C132.177 137.717 132.131 137.711 132.086 137.698L121.524 136.938C120.686 136.878 119.871 136.645 119.133 136.254C118.394 135.863 117.749 135.323 117.239 134.671L116.052 133.149C115.765 132.782 115.581 132.347 115.519 131.888C115.457 131.429 115.519 130.963 115.699 130.534C115.879 130.106 116.17 129.731 116.543 129.447C116.917 129.163 117.36 128.979 117.829 128.914L120.985 128.475C123.147 128.174 125.343 128.177 127.504 128.486L134.019 129.417C138.965 127.898 145.566 125.902 147.214 125.559L145.168 116.277L147.586 115.349C148.348 117.047 149.064 118.64 149.735 120.129C148.976 113.057 149.061 105.247 148.149 98.3101L145.861 98.3582C144.497 98.8864 141.637 99.7736 141.327 97.8942C141.327 97.8942 145.111 96.394 147.773 95.2954L147.971 95.1267C148.128 94.988 148.316 94.8869 148.521 94.8314C148.562 94.8141 148.608 94.8068 148.653 94.8103L148.799 94.7896C148.542 94.8125 148.285 94.8164 148.028 94.8014C146.188 94.7225 143.933 91.5403 142.847 86.9022C142.761 86.5297 142.698 86.1528 142.656 85.7733L142.383 81.9983C142.308 81.1607 142.468 80.319 142.845 79.5633C142.878 79.487 142.915 79.413 142.958 79.3418C143.082 79.1258 143.218 78.9163 143.364 78.714C143.864 78.0367 144.505 77.4699 145.244 77.0506C146.697 76.3714 148.292 76.034 149.902 76.0655C150.057 76.0735 150.545 76.0963 151.232 76.1233C151.863 76.2173 152.502 76.2488 153.14 76.2174C153.309 76.2159 153.472 76.277 153.597 76.3884C153.722 76.4999 153.799 76.6534 153.813 76.8181L154.083 82.224C154.088 82.2812 154.099 82.3377 154.115 82.3928C156.332 81.5125 157.917 82.0146 158.873 83.8993C160.307 86.7259 159.008 86.1146 158.37 86.868C157.987 87.2903 157.499 87.609 156.953 87.7932C156.875 87.8123 156.802 87.8506 156.743 87.9046L158.466 87.9206L158.77 89.0825L158.883 90.559L160.015 95.9552C158.978 96.5017 157.91 96.99 156.816 97.4179ZM152.969 94.2061L152.839 93.5995L152.674 93.6666C150.843 94.4141 150.947 94.3631 150.821 94.4162C150.547 94.5006 150.28 94.5643 150.026 94.6162L151.998 94.3432L152.969 94.2061ZM170.959 202.298H156.504L156.815 197.631C158.591 198.114 159.986 198.398 164.763 198.561C165.085 198.574 165.409 198.568 165.731 198.542C167.552 198.41 169.365 198.183 171.161 197.86L172.42 202.237L170.959 202.298ZM148.94 196.666L149.569 200.665H133.734L134.778 198.399C136.548 198.201 138.775 197.868 141.6 197.539C144.94 197.152 147.294 196.988 148.939 196.665L148.94 196.666Z" fill="#DB9E75"/>
<path d="M154.313 94.0449L153.481 94.1567L153.016 94.2221L152.969 94.209L152.84 93.5986L155.201 92.6211C154.999 93.1457 154.697 93.6286 154.313 94.0449Z" fill="#482D1F"/>
<path d="M144.244 86.445C144.322 86.8201 144.466 87.4229 144.315 87.7106C144.071 88.1747 143.212 87.231 143.279 86.5041C143.318 86.2041 143.46 86.0649 143.635 86.0501C143.769 86.0279 143.907 86.0563 144.02 86.1297C144.133 86.2031 144.213 86.3158 144.244 86.445ZM148.919 85.6494C148.997 86.0244 149.14 86.6277 148.99 86.915C148.745 87.3791 147.887 86.4353 147.954 85.7084C147.993 85.4081 148.135 85.2693 148.31 85.2545C148.444 85.2322 148.581 85.2606 148.695 85.3339C148.808 85.4072 148.888 85.5198 148.919 85.6489V85.6494Z" fill="#482D1F"/>
<path d="M145.326 86.399L145.318 88.5206C145.324 88.6469 145.38 88.766 145.474 88.8527C145.568 88.9395 145.693 88.9871 145.822 88.9856C146.036 88.9802 146.25 88.9635 146.462 88.9356C146.636 88.9173 146.756 88.9059 146.896 88.8938C146.953 88.8889 147.006 88.8621 147.043 88.8193C147.08 88.7764 147.098 88.721 147.093 88.6653C147.088 88.6096 147.06 88.5581 147.016 88.5221C146.972 88.4861 146.916 88.4687 146.859 88.4735C146.714 88.4859 146.592 88.4963 146.416 88.5161C146.212 88.5427 146.007 88.5588 145.801 88.5644C145.79 88.558 145.78 88.5493 145.772 88.5388C145.764 88.5284 145.759 88.5164 145.757 88.5038L145.766 86.3995C145.766 86.3425 145.743 86.2878 145.702 86.2475C145.661 86.2071 145.605 86.1844 145.547 86.1843C145.488 86.1843 145.432 86.2069 145.391 86.2471C145.35 86.2874 145.326 86.342 145.326 86.399Z" fill="#482D1F"/>
<path d="M147.336 90.0857C147.485 90.0306 147.844 89.852 147.869 89.6378C147.865 89.5957 147.882 89.5308 147.858 89.5117C147.762 89.4136 147.483 89.5221 147.095 89.6193C146.672 89.7188 146.243 89.79 145.81 89.8324C145.913 89.9879 146.03 90.1339 146.159 90.2684C146.424 90.502 147.102 90.1904 147.336 90.0857Z" fill="#482D1F"/>
<path d="M152.649 84.0853L153.378 83.8474C153.419 83.8317 153.463 83.8243 153.506 83.8255C153.55 83.8267 153.593 83.8366 153.633 83.8545C153.673 83.8724 153.709 83.898 153.738 83.9297C153.767 83.9615 153.79 83.9987 153.804 84.0392C153.819 84.0796 153.824 84.1225 153.821 84.1652C153.818 84.208 153.806 84.2496 153.786 84.2877C153.767 84.3259 153.739 84.3597 153.705 84.3871C153.672 84.4145 153.633 84.435 153.591 84.4473L152.861 84.6852L152.312 84.8649C152.375 85.065 152.416 85.271 152.435 85.4796C152.468 85.8752 152.42 86.2732 152.295 86.6508C152.17 87.0284 151.969 87.3781 151.706 87.6799C151.442 87.9817 151.12 88.2296 150.758 88.4095C150.395 88.5894 150.001 88.6976 149.596 88.728C148.888 88.7911 148.179 88.6165 147.587 88.233C146.994 87.8495 146.553 87.2801 146.337 86.6187L145.952 86.6769L145.634 86.725C145.667 87.3232 145.519 87.9178 145.209 88.4346C144.899 88.9515 144.44 89.3676 143.889 89.6313C143.339 89.8949 142.721 89.9943 142.113 89.9171C141.505 89.8399 140.934 89.5895 140.47 89.1972C140.007 88.8048 139.672 88.2879 139.507 87.7108C139.343 87.1337 139.355 86.522 139.544 85.9519C139.733 85.3819 140.089 84.8788 140.569 84.5053C141.048 84.1318 141.629 83.9044 142.24 83.8516C142.973 83.7859 143.705 83.9753 144.309 84.3863C144.913 84.7972 145.348 85.4034 145.539 86.0977L145.849 86.0508L145.952 86.6769C145.574 86.4082 145.572 86.3989 145.571 86.39L145.226 86.1449L145.539 86.0977C145.555 86.1564 145.569 86.2158 145.582 86.2757C145.598 86.2158 145.632 86.1622 145.68 86.122C145.728 86.0817 145.788 86.0569 145.851 86.0508L146.213 85.996C146.18 85.6003 146.228 85.2023 146.353 84.8247C146.479 84.4471 146.679 84.0973 146.943 83.7955C147.207 83.4937 147.529 83.2458 147.891 83.066C148.253 82.8861 148.648 82.7779 149.053 82.7475C149.65 82.6953 150.25 82.8114 150.782 83.0821C151.314 83.3527 151.755 83.7666 152.054 84.2747L152.649 84.0853ZM145.329 86.7748C145.286 86.7815 145.243 86.78 145.2 86.7701C145.158 86.7603 145.118 86.7424 145.083 86.7175C145.048 86.6925 145.018 86.661 144.996 86.6248C144.973 86.5886 144.958 86.5484 144.951 86.5064C144.94 86.4234 144.962 86.3391 145.014 86.2721C145.065 86.2051 145.142 86.1607 145.227 86.1487L145.849 86.0546L146.212 85.9998C146.212 85.9998 146.212 85.9998 146.212 86.0027C146.231 86.2131 146.273 86.4208 146.337 86.6225L145.952 86.6807L145.329 86.7748ZM145.952 86.6807C145.889 86.6937 145.822 86.6871 145.763 86.6617C145.703 86.6363 145.654 86.5934 145.62 86.5389L145.952 86.6807ZM149.539 88.0986C150.013 88.0494 150.462 87.8644 150.829 87.567C151.196 87.2695 151.465 86.8727 151.602 86.4264C151.74 85.9801 151.739 85.5041 151.601 85.0581C151.462 84.6122 151.192 84.2161 150.824 83.9195C150.456 83.6229 150.007 83.4391 149.533 83.391C149.058 83.343 148.58 83.4328 148.158 83.6494C147.735 83.8659 147.388 84.1995 147.159 84.6082C146.929 85.017 146.829 85.4827 146.87 85.947C146.899 86.2603 146.991 86.5649 147.141 86.843C147.292 87.1212 147.497 87.3674 147.745 87.5675C147.994 87.7676 148.28 87.9176 148.588 88.0088C148.897 88.0999 149.22 88.1305 149.54 88.0986H149.539ZM142.298 84.4869C141.824 84.5362 141.375 84.7211 141.008 85.0186C140.641 85.3161 140.372 85.7128 140.235 86.1591C140.097 86.6055 140.098 87.0814 140.236 87.5274C140.375 87.9734 140.645 88.3695 141.013 88.6661C141.381 88.9626 141.83 89.1465 142.304 89.1945C142.779 89.2426 143.257 89.1527 143.679 88.9362C144.102 88.7196 144.449 88.3861 144.678 87.9773C144.908 87.5686 145.008 87.1028 144.967 86.6385C144.963 86.5946 144.958 86.551 144.952 86.5077C144.856 85.9041 144.528 85.3588 144.035 84.9832C143.542 84.6077 142.921 84.43 142.299 84.4865L142.298 84.4869Z" fill="#482D1F"/>
<path opacity="0.2" d="M158.207 137.328L132.394 137.715V137.722L132.315 137.717H132.215C132.169 137.717 132.123 137.711 132.078 137.698L121.516 136.939C120.679 136.878 119.863 136.645 119.125 136.254C118.386 135.863 117.741 135.324 117.231 134.671L116.044 133.15C115.757 132.782 115.574 132.347 115.512 131.888C115.45 131.429 115.512 130.963 115.691 130.535C115.871 130.107 116.162 129.732 116.535 129.447C116.909 129.163 117.352 128.979 117.821 128.914L120.977 128.475C123.139 128.174 125.335 128.178 127.496 128.486L134.011 129.417C138.958 127.898 145.559 125.903 147.207 125.559L145.16 116.278L147.578 115.35C148.382 117.143 149.136 118.82 149.839 120.383C149.962 121.313 150.106 122.238 150.271 123.158C151.894 131.463 153.778 136.424 158.207 137.328Z" fill="#8C2A00"/>
<path d="M160.679 116.194C160.667 116.154 160.663 116.111 160.668 116.07C160.673 116.028 160.686 115.988 160.706 115.951C160.727 115.914 160.755 115.882 160.789 115.856C160.822 115.83 160.861 115.811 160.902 115.8C160.986 115.776 161.075 115.784 161.152 115.824C161.229 115.865 161.286 115.932 161.312 116.014L163.49 123.07C163.502 123.11 163.506 123.152 163.501 123.194C163.497 123.235 163.484 123.276 163.463 123.312C163.442 123.349 163.414 123.381 163.381 123.407C163.347 123.433 163.308 123.453 163.267 123.464C163.184 123.488 163.094 123.479 163.017 123.439C162.94 123.399 162.883 123.331 162.857 123.25L160.679 116.194ZM174.462 112.746C174.418 112.748 174.374 112.741 174.333 112.726C174.292 112.711 174.254 112.687 174.223 112.658C174.191 112.628 174.166 112.592 174.149 112.552C174.132 112.513 174.123 112.47 174.124 112.427C174.124 112.384 174.133 112.342 174.151 112.302C174.169 112.263 174.194 112.228 174.227 112.198C174.259 112.169 174.297 112.146 174.338 112.132C174.379 112.117 174.423 112.111 174.467 112.113C175.345 112.126 176.219 111.996 177.054 111.728C177.136 111.701 177.226 111.706 177.305 111.743C177.383 111.78 177.443 111.846 177.473 111.926C177.486 111.966 177.492 112.008 177.489 112.05C177.486 112.091 177.475 112.132 177.456 112.17C177.436 112.207 177.41 112.24 177.377 112.268C177.345 112.295 177.307 112.316 177.267 112.329C176.362 112.619 175.414 112.76 174.462 112.746H174.462Z" fill="#482D1F"/>
<path d="M156.202 87.7172C156.937 87.5773 157.611 87.2216 158.133 86.6975C158.485 86.2983 158.716 85.8114 158.801 85.2913C158.886 84.7711 158.822 84.2381 158.615 83.7516C158.191 82.7268 157.061 81.9523 156.01 82.0619C155.61 82.1167 155.23 82.2651 154.901 82.4944C154.466 82.826 154.119 83.2552 153.889 83.7456L153.716 84.2363C153.63 84.1266 153.544 84.0254 153.466 83.9296C151.782 82.4167 150.81 81.3675 149.105 79.8564C148.248 80.1403 142.744 82.0223 142.33 81.8451C142.33 79.6986 143.147 79.0076 143.286 78.8262C143.824 78.0977 144.503 77.4787 145.284 77.0037C146.737 76.3245 148.332 75.9871 149.942 76.0186C150.097 76.0266 150.585 76.0494 151.272 76.0764C151.471 76.081 151.67 76.0852 151.913 76.0861C152.487 76.0802 152.929 76.0861 153.194 76.0861C156.544 76.0165 157.806 75.5714 159.55 76.2941C159.652 76.3392 159.795 76.4042 159.964 76.4932C160.076 76.214 160.203 75.9412 160.347 75.676C164.036 68.8138 168.515 70.3671 168.515 70.3929C168.515 70.4186 171.909 70.4182 172.777 73.743C172.863 74.0733 173.472 76.4067 172.499 78.3309C171.194 80.8482 167.302 82.3982 162.872 81.3401C162.907 81.891 162.9 82.4436 162.85 82.9934C162.609 85.4315 161.225 86.9684 160.821 87.6176C160.235 88.5446 159.566 89.419 158.823 90.2307C157.922 89.7386 157.145 89.0556 156.55 88.2319C156.436 88.0627 156.32 87.891 156.202 87.7172Z" fill="#482D1F"/>
<path d="M112.257 132.486C114.74 130.116 119.808 128.257 128.185 132.945C129.462 133.636 128.997 135.808 127.581 135.804L112.989 135.703C111.893 135.71 111.43 133.283 112.257 132.486Z" fill="#474961"/>
<path d="M83.0059 177.123H86.1106C86.8541 177.318 87.5292 177.707 88.063 178.249C88.5968 178.791 88.9691 179.465 89.1397 180.198C89.5585 181.765 88.5488 183.268 86.1106 184.707L86.0856 184.702L86.0877 184.707H47.7363C45.2984 183.268 44.2887 181.765 44.7072 180.199C44.8778 179.465 45.25 178.791 45.7838 178.249C46.3176 177.707 46.9927 177.318 47.7363 177.123H83.0059Z" fill="#3ABF7C"/>
<path d="M98.3319 85.0323H28.5685C25.8291 85.0323 23.5918 83.0495 23.5918 80.6241V39.9199C23.5918 37.4945 25.8291 35.5117 28.5685 35.5117H98.3319C101.071 35.5117 103.309 37.4945 103.309 39.9199V80.6039C103.308 83.0503 101.071 85.0323 98.3319 85.0323Z" fill="#F2F6FB"/>
<path d="M23.6133 35.2458C23.6132 34.0624 24.0941 32.9275 24.9503 32.0906C25.8066 31.2537 26.9679 30.7834 28.179 30.7832H98.7182C99.9293 30.7834 101.091 31.2537 101.947 32.0906C102.803 32.9274 103.284 34.0624 103.284 35.2458V40.375H23.6133V35.2458Z" fill="#E1E5F0"/>
<path d="M35.883 58.4438H44.6733C44.8457 58.4438 45.0164 58.477 45.1756 58.5414C45.3349 58.6059 45.4795 58.7003 45.6014 58.8194C45.7233 58.9385 45.82 59.0799 45.8859 59.2355C45.9519 59.3911 45.9858 59.5579 45.9858 59.7263C45.9858 59.8947 45.9519 60.0615 45.8859 60.2171C45.82 60.3727 45.7233 60.5141 45.6014 60.6332C45.4795 60.7522 45.3349 60.8467 45.1756 60.9112C45.0164 60.9756 44.8457 61.0088 44.6733 61.0088H35.883C35.5349 61.0088 35.201 60.8736 34.9548 60.6331C34.7086 60.3925 34.5703 60.0663 34.5703 59.7261C34.5703 59.3859 34.7086 59.0596 34.9548 58.8191C35.201 58.5785 35.5349 58.4434 35.883 58.4434V58.4438ZM35.883 72.72H44.6733C45.0215 72.72 45.3554 72.8552 45.6016 73.0957C45.8478 73.3363 45.9861 73.6626 45.9861 74.0028C45.9861 74.343 45.8478 74.6692 45.6016 74.9098C45.3554 75.1503 45.0215 75.2855 44.6733 75.2855H35.883C35.5349 75.2855 35.201 75.1503 34.9548 74.9098C34.7086 74.6692 34.5703 74.343 34.5703 74.0028C34.5703 73.6626 34.7086 73.3363 34.9548 73.0957C35.201 72.8552 35.5349 72.72 35.883 72.72ZM49.3535 58.4438H58.1407C58.4889 58.4438 58.8228 58.5789 59.069 58.8195C59.3152 59.06 59.4535 59.3863 59.4535 59.7265C59.4535 60.0667 59.3152 60.393 59.069 60.6335C58.8228 60.8741 58.4889 61.0092 58.1407 61.0092H49.3517C49.0036 61.0092 48.6697 60.8741 48.4235 60.6335C48.1773 60.393 48.039 60.0667 48.039 59.7265C48.039 59.3863 48.1773 59.06 48.4235 58.8195C48.6697 58.5789 49.0036 58.4438 49.3517 58.4438H49.3535ZM49.3535 72.72H58.1407C58.4889 72.72 58.8228 72.8552 59.069 73.0957C59.3152 73.3363 59.4535 73.6626 59.4535 74.0028C59.4535 74.343 59.3152 74.6692 59.069 74.9098C58.8228 75.1503 58.4889 75.2855 58.1407 75.2855H49.3517C49.0036 75.2855 48.6697 75.1503 48.4235 74.9098C48.1773 74.6692 48.039 74.343 48.039 74.0028C48.039 73.6626 48.1773 73.3363 48.4235 73.0957C48.6697 72.8552 49.0036 72.72 49.3517 72.72H49.3535ZM62.8239 58.4438H71.6094C71.9576 58.4438 72.2915 58.5789 72.5377 58.8195C72.7839 59.06 72.9222 59.3863 72.9222 59.7265C72.9222 60.0667 72.7839 60.393 72.5377 60.6335C72.2915 60.8741 71.9576 61.0092 71.6094 61.0092H62.8204C62.4723 61.0092 62.1384 60.8741 61.8922 60.6335C61.646 60.393 61.5077 60.0667 61.5077 59.7265C61.5077 59.3863 61.646 59.06 61.8922 58.8195C62.1384 58.5789 62.4723 58.4438 62.8204 58.4438H62.8239ZM62.8239 72.72H71.6094C71.9576 72.72 72.2915 72.8552 72.5377 73.0957C72.7839 73.3363 72.9222 73.6626 72.9222 74.0028C72.9222 74.343 72.7839 74.6692 72.5377 74.9098C72.2915 75.1503 71.9576 75.2855 71.6094 75.2855H62.8204C62.4723 75.2855 62.1384 75.1503 61.8922 74.9098C61.646 74.6692 61.5077 74.343 61.5077 74.0028C61.5077 73.6626 61.646 73.3363 61.8922 73.0957C62.1384 72.8552 62.4723 72.72 62.8204 72.72H62.8239ZM35.883 51.3057H52.2056C52.5537 51.3057 52.8876 51.4408 53.1338 51.6814C53.38 51.9219 53.5183 52.2482 53.5183 52.5884C53.5183 52.9286 53.38 53.2548 53.1338 53.4954C52.8876 53.7359 52.5537 53.8711 52.2056 53.8711H35.883C35.5349 53.8711 35.201 53.7359 34.9548 53.4954C34.7086 53.2548 34.5703 52.9286 34.5703 52.5884C34.5703 52.2482 34.7086 51.9219 34.9548 51.6814C35.201 51.4408 35.5349 51.3057 35.883 51.3057V51.3057ZM72.8662 51.3057H91.243C91.5912 51.3057 91.9251 51.4408 92.1712 51.6814C92.4174 51.9219 92.5557 52.2482 92.5557 52.5884C92.5557 52.9286 92.4174 53.2548 92.1712 53.4954C91.9251 53.7359 91.5912 53.8711 91.243 53.8711H72.8662C72.5181 53.8711 72.1842 53.7359 71.938 53.4954C71.6918 53.2548 71.5535 52.9286 71.5535 52.5884C71.5535 52.2482 71.6918 51.9219 71.938 51.6814C72.1842 51.4408 72.5181 51.3057 72.8662 51.3057V51.3057ZM72.8662 65.5819H91.243C91.5912 65.5819 91.9251 65.7171 92.1712 65.9576C92.4174 66.1982 92.5557 66.5244 92.5557 66.8646C92.5557 67.2048 92.4174 67.5311 92.1712 67.7716C91.9251 68.0122 91.5912 68.1473 91.243 68.1473H72.8662C72.5181 68.1473 72.1842 68.0122 71.938 67.7716C71.6918 67.5311 71.5535 67.2048 71.5535 66.8646C71.5535 66.5244 71.6918 66.1982 71.938 65.9576C72.1842 65.7171 72.5181 65.5819 72.8662 65.5819ZM56.8865 65.5819H60.1967C60.5449 65.5819 60.8788 65.7171 61.1249 65.9576C61.3711 66.1982 61.5094 66.5244 61.5094 66.8646C61.5094 67.2048 61.3711 67.5311 61.1249 67.7716C60.8788 68.0122 60.5449 68.1473 60.1967 68.1473H56.8852C56.5371 68.1473 56.2032 68.0122 55.957 67.7716C55.7108 67.5311 55.5725 67.2048 55.5725 66.8646C55.5725 66.5244 55.7108 66.1982 55.957 65.9576C56.2032 65.7171 56.5371 65.5819 56.8852 65.5819H56.8865ZM64.8751 51.3057H68.1853C68.5334 51.3057 68.8673 51.4408 69.1135 51.6814C69.3597 51.9219 69.498 52.2482 69.498 52.5884C69.498 52.9286 69.3597 53.2548 69.1135 53.4954C68.8673 53.7359 68.5334 53.8711 68.1853 53.8711H64.8751C64.5269 53.8711 64.193 53.7359 63.9469 53.4954C63.7007 53.2548 63.5624 52.9286 63.5624 52.5884C63.5624 52.2482 63.7007 51.9219 63.9469 51.6814C64.193 51.4408 64.5269 51.3057 64.8751 51.3057V51.3057ZM76.2891 58.4438H91.2417C91.5899 58.4438 91.9238 58.5789 92.17 58.8195C92.4161 59.06 92.5544 59.3863 92.5544 59.7265C92.5544 60.0667 92.4161 60.393 92.17 60.6335C91.9238 60.8741 91.5899 61.0092 91.2417 61.0092H76.2891C75.941 61.0092 75.6071 60.8741 75.3609 60.6335C75.1147 60.393 74.9764 60.0667 74.9764 59.7265C74.9764 59.3863 75.1147 59.06 75.3609 58.8195C75.6071 58.5789 75.941 58.4438 76.2891 58.4438Z" fill="#E1E5F0"/>
<path d="M35.883 65.5811H52.2056C52.5537 65.5811 52.8876 65.7162 53.1338 65.9568C53.38 66.1973 53.5183 66.5236 53.5183 66.8638C53.5183 67.204 53.38 67.5302 53.1338 67.7708C52.8876 68.0113 52.5537 68.1465 52.2056 68.1465H35.883C35.5349 68.1465 35.201 68.0113 34.9548 67.7708C34.7086 67.5302 34.5703 67.204 34.5703 66.8638C34.5703 66.5236 34.7086 66.1973 34.9548 65.9568C35.201 65.7162 35.5349 65.5811 35.883 65.5811ZM64.8751 65.5811H68.1853C68.5334 65.5811 68.8673 65.7162 69.1135 65.9568C69.3597 66.1973 69.498 66.5236 69.498 66.8638C69.498 67.204 69.3597 67.5302 69.1135 67.7708C68.8673 68.0113 68.5334 68.1465 68.1853 68.1465H64.8751C64.5269 68.1465 64.193 68.0113 63.9469 67.7708C63.7007 67.5302 63.5624 67.204 63.5624 66.8638C63.5624 66.5236 63.7007 66.1973 63.9469 65.9568C64.193 65.7162 64.5269 65.5811 64.8751 65.5811Z" fill="#A339FF"/>
<path d="M56.8869 51.3057H60.1971C60.5453 51.3057 60.8792 51.4408 61.1254 51.6814C61.3715 51.9219 61.5098 52.2482 61.5098 52.5884C61.5098 52.9286 61.3715 53.2548 61.1254 53.4954C60.8792 53.7359 60.5453 53.8711 60.1971 53.8711H56.8869C56.5388 53.8711 56.2049 53.7359 55.9587 53.4954C55.7125 53.2548 55.5742 52.9286 55.5742 52.5884C55.5742 52.2482 55.7125 51.9219 55.9587 51.6814C56.2049 51.4408 56.5388 51.3057 56.8869 51.3057V51.3057ZM76.2908 72.72H91.2434C91.5916 72.72 91.9255 72.8552 92.1717 73.0957C92.4178 73.3363 92.5561 73.6626 92.5561 74.0028C92.5561 74.343 92.4178 74.6692 92.1717 74.9098C91.9255 75.1503 91.5916 75.2855 91.2434 75.2855H76.2913C75.9431 75.2855 75.6092 75.1503 75.363 74.9098C75.1168 74.6692 74.9785 74.343 74.9785 74.0028C74.9785 73.6626 75.1168 73.3363 75.363 73.0957C75.6092 72.8552 75.9431 72.72 76.2913 72.72H76.2908Z" fill="#FF5645"/>
<path d="M31.065 24H10.6349C5.86597 24 2 27.7776 2 32.4375V38.4619C2 43.1218 5.86597 46.8994 10.6349 46.8994H31.065C35.8339 46.8994 39.6999 43.1218 39.6999 38.4619V32.4375C39.6999 27.7776 35.8339 24 31.065 24Z" fill="#3ABF7C"/>
<path fill-rule="evenodd" clip-rule="evenodd" d="M15.1164 29.4961C15.4579 29.9294 15.383 30.557 14.9493 30.8981L8.53874 35.9383L15.1823 39.4945C15.6688 39.755 15.8519 40.3601 15.5911 40.8461C15.3303 41.332 14.7245 41.5148 14.238 41.2544L6.24809 36.9774C5.95085 36.8183 5.75398 36.5202 5.72453 36.1847C5.69508 35.8491 5.83702 35.5214 6.102 35.313L13.7128 29.3292C14.1466 28.9881 14.775 29.0629 15.1164 29.4961Z" fill="white"/>
<path fill-rule="evenodd" clip-rule="evenodd" d="M25.7395 29.573C26.0385 29.1095 26.657 28.9758 27.1211 29.2744L35.1109 34.4158C35.3938 34.5978 35.566 34.9097 35.5691 35.2458C35.5722 35.5818 35.4059 35.8969 35.1265 36.0841L27.4877 41.2036C27.0293 41.5108 26.4083 41.3886 26.1007 40.9308C25.7932 40.4729 25.9154 39.8527 26.3738 39.5455L32.7504 35.272L26.0384 30.9529C25.5743 30.6543 25.4405 30.0365 25.7395 29.573Z" fill="white"/>
<path fill-rule="evenodd" clip-rule="evenodd" d="M22.5216 26.9939C23.0593 27.1187 23.3939 27.6552 23.269 28.1923L19.7917 43.1402C19.6668 43.6772 19.1296 44.0114 18.5919 43.8867C18.0542 43.7619 17.7196 43.2253 17.8445 42.6883L21.3218 27.7404C21.4467 27.2033 21.9839 26.8691 22.5216 26.9939Z" fill="white"/>
<path d="M43.8167 184.23C43.8544 184.227 43.8924 184.226 43.9306 184.226H89.36C89.7837 184.226 90.19 184.39 90.4896 184.683C90.7892 184.976 90.9575 185.373 90.9575 185.787C90.9575 186.201 90.7892 186.598 90.4896 186.89C90.19 187.183 89.7837 187.347 89.36 187.347H43.9319C43.8937 187.347 43.8557 187.346 43.818 187.343V214.227C43.818 214.432 43.7766 214.635 43.6964 214.824C43.6161 215.014 43.4984 215.186 43.3501 215.331C43.2017 215.476 43.0256 215.59 42.8318 215.669C42.638 215.747 42.4303 215.788 42.2205 215.788C42.0107 215.788 41.803 215.747 41.6092 215.669C41.4154 215.59 41.2393 215.476 41.0909 215.331C40.9426 215.186 40.8249 215.014 40.7446 214.824C40.6644 214.635 40.623 214.432 40.623 214.227V136.825C40.6228 136.467 40.7483 136.12 40.9787 135.841C41.2091 135.563 41.5303 135.371 41.8885 135.296C42.0994 135.201 42.3293 135.151 42.562 135.151H178.391C178.815 135.151 179.221 135.316 179.521 135.609C179.82 135.901 179.989 136.298 179.989 136.712C179.989 137.126 179.82 137.523 179.521 137.816C179.221 138.109 178.815 138.273 178.391 138.273H43.8167V184.23Z" fill="#474961"/>
<path d="M75.2185 132.433L77.4139 123.778H60.9342C59.2219 123.779 57.8066 122.508 57.8066 120.968V96.4535C57.8173 96.0675 57.9065 95.6873 58.0688 95.3352C58.2312 94.9831 58.4636 94.666 58.7525 94.4025C59.0414 94.1389 59.381 93.934 59.7516 93.7998C60.1222 93.6656 60.5164 93.6047 60.9113 93.6207H111.065C112.778 93.6207 114.193 94.8922 114.193 96.4312V120.968C114.193 122.507 112.778 123.779 111.065 123.779H90.9819L90.0756 132.433H96.0216C96.4515 132.433 96.8637 132.6 97.1677 132.897C97.4716 133.194 97.6424 133.597 97.6424 134.017C97.6424 134.437 97.4716 134.84 97.1677 135.137C96.8637 135.434 96.4515 135.601 96.0216 135.601H70.5681C70.355 135.602 70.1436 135.562 69.9464 135.483C69.7491 135.404 69.5699 135.287 69.419 135.14C69.2681 134.993 69.1486 134.818 69.0673 134.625C68.9861 134.433 68.9447 134.226 68.9456 134.018C68.9405 133.809 68.9789 133.6 69.0587 133.406C69.1384 133.211 69.2577 133.034 69.4094 132.886C69.5611 132.738 69.7421 132.621 69.9412 132.543C70.1404 132.466 70.3537 132.428 70.5681 132.433H75.2185Z" fill="#474961"/>
<path fill-rule="evenodd" clip-rule="evenodd" d="M91.662 117.472L91.7293 132.458H90.0918L91.662 117.472Z" fill="#F5F5F5"/>
<path d="M205.999 216L2.00781 216" stroke="#151E29" stroke-width="4" stroke-linecap="round"/>
</svg>
